<?xml version="1.0" standalone="no"?>
<!DOCTYPE svg PUBLIC "-//W3C//DTD SVG 1.1//EN" "http://www.w3.org/Graphics/SVG/1.1/DTD/svg11.dtd" >
<svg xmlns="http://www.w3.org/2000/svg">
<metadata>
Generated by SVGconv.
</metadata>
<defs>
<font id="M.Video-BoldItalic" horiz-adv-x="532" >
<font-face units-per-em="1000" ascent="919" descent="281" />
<missing-glyph horiz-adv-x="234" />
<glyph unicode="&#32;" horiz-adv-x="334" />
<glyph unicode="&#33;" horiz-adv-x="279" d="M78 45q0 38 26.5 63.5q26.5 25.5 64.5 25.5q30 0 47.5 -17.5q17.5 -17.5 17.5 -45.5q0 -39 -26.5 -63.5q-26.5 -24.5 -64.5 -24.5q-31 0 -48 17q-17 17 -17 45zt0 0zM230 245q-5 -21 -12.5 -26.5q-7.5 -5.5 -22.5 -7.5l-27 0q-9 1 -16 2q-7 1 -11 4.5q-4 3.5 -5 11q-1 7.5 1 21.5l57 387q6 29 23.5 47q17.5 18 52.5 19q38 -2 49.5 -22q11.5 -20 5.5 -52z" />
<glyph unicode="&#34;" horiz-adv-x="303" d="M84 615q7 24 18 33q11 9 32 9h52q22 0 26 -16.5q4 -16.5 -7 -41.5l-64 -139q-9 -19 -19 -25q-10 -6 -27 -6h-23q-21 0 -26.5 12q-5.5 12 0.5 35zM245 615q7 24 18 33q11 9 33 9h51q23 0 26.5 -16.5q3.5 -16.5 -7.5 -41.5l-63 -139q-9 -19 -19.5 -25q-10.5 -6 -27.5 -6h-23q-20 0 -25.5 12q-5.5 12 0.5 35z" />
<glyph unicode="&#35;" horiz-adv-x="703" d="M635 174q-7 -15 -17 -18q-10 -3 -26 -3h-76l-58 -128q-7 -14 -15.5 -19.5q-8.5 -5.5 -25.5 -5.5h-39q-20 1 -22.5 12.5q-2.5 11.5 5.5 30.5l49 110h-129l-57 -128q-7 -14 -15.5 -19.5q-8.5 -5.5 -25.5 -5.5h-40q-20 1 -22 12.5q-2 11.5 6 30.5l49 110h-59q-17 0 -26.5 8q-9.5 8 -2.5 26l13 32q6 16 15.5 18q9.5 2 26.5 2h72l39 88h-62q-17 0 -27 8q-10 8 -3 26l14 32q6 16 15.5 18q9.5 2 26.5 2h75l60 132q7 14 16 19.5q9 5.5 26 5.5h39q20 -1 22 -12.5q2 -11.5 -6 -30.5l-52 -114h130l60 132q7 14 15.5 19.5q8.5 5.5 25.5 5.5h40q20 -1 22 -12.5q2 -11.5 -6 -30.5l-52 -114h65q13 0 22.5 -8q9.5 -8 2.5 -27l-13 -30q-7 -15 -17 -18q-10 -3 -27 -3h-72l-39 -88h68q13 0 22.5 -8q9.5 -8 2.5 -27zM320 239h129l40 88l-130 0z" />
<glyph unicode="&#36;" horiz-adv-x="593" d="M393 661q5 27 14.5 32.5q9.5 5.5 35.5 5.5h17q24 0 33 -5.5q9 -5.5 4 -32.5l-10 -56q40 -11 70 -33q30 -22 30 -54q0 -16 -8.5 -30q-8.5 -14 -22.5 -24q-9 -6 -21 2q-26 18 -60.5 30q-34.5 12 -67.5 12q-24 0 -41.5 -6.5q-17.5 -6.5 -29 -17.5q-11.5 -11 -16.5 -24.5q-5 -13.5 -5 -27.5q0 -24 17.5 -42.5q17.5 -18.5 43 -35q25.5 -16.5 56 -33.5q30.5 -17 56 -38.5q25.5 -21.5 43 -50q17.5 -28.5 17.5 -68.5q0 -66 -44 -114.5q-44 -48.5 -127 -59.5l-10 -58q-5 -27 -16 -32.5q-11 -5.5 -34 -5.5h-18q-25 0 -33.5 5.5q-8.5 5.5 -3.5 32.5l11 61q-23 4 -45.5 12.5q-22.5 8.5 -40.5 21.5q-18 13 -29 31q-11 18 -11 41q0 13 4.5 26q4.5 13 16.5 24q10 8 19 2q13 -9 29.5 -18.5q16.5 -9.5 36 -17.5q19.5 -8 41 -13q21.5 -5 44.5 -5q39 0 65.5 13.5q26.5 13.5 26.5 44.5q0 24 -17 42q-17 18 -43 34q-26 16 -55.5 32.5q-29.5 16.5 -55.5 39q-26 22.5 -43 53.5q-17 31 -17 74q1 32 14.5 63q13.5 31 37.5 55.5q24 24.5 57.5 42q33.5 17.5 75.5 22.5z" />
<glyph unicode="&#37;" horiz-adv-x="787" d="M626 594q15 16 27 23.5q12 7.5 30 7.5h60q18 0 20 -14q2 -14 -12 -31l-492 -549q-15 -16 -27 -23.5q-12 -7.5 -30 -7.5h-60q-18 0 -20 14q-2 14 12 31zM767 171q0 -37 -11.5 -70q-11.5 -33 -34 -58q-22.5 -25 -56 -40q-33.5 -15 -77.5 -15q-66 0 -96.5 36q-30.5 36 -30.5 90q0 37 11.5 70q11.5 33 34 58q22.5 25 55.5 40q33 15 77 15q67 0 97.5 -36q30.5 -36 30.5 -90zt0 0zM657 159q0 28 -9.5 41.5q-9.5 13.5 -23.5 13.5q-17 0 -35 -22.5q-18 -22.5 -18 -67.5q0 -29 10.5 -41q10.5 -12 24.5 -12q11 0 20.5 8q9.5 8 16 20.5q6.5 12.5 10.5 28q4 15.5 4 31.5zt0 0zM417 503q0 -37 -11.5 -70q-11.5 -33 -34 -58q-22.5 -25 -56 -40q-33.5 -15 -77.5 -15q-66 0 -96.5 36q-30.5 36 -30.5 90q0 37 11.5 70q11.5 33 34 58q22.5 25 55.5 40q33 15 77 15q67 0 97.5 -36q30.5 -36 30.5 -90zt0 0zM307 491q0 28 -9.5 41.5q-9.5 13.5 -23.5 13.5q-17 0 -35 -22.5q-18 -22.5 -18 -67.5q0 -29 10.5 -41q10.5 -12 24.5 -12q11 0 20.5 8q9.5 8 16 20.5q6.5 12.5 10.5 28t4 31.5z" />
<glyph unicode="&#38;" horiz-adv-x="724" d="M703 719q28 4 46 -11q18 -15 20 -43q0 -39 -18 -64q-18 -25 -49.5 -40q-31.5 -15 -73.5 -22q-42 -7 -89 -10q36 -17 61 -42.5q25 -25.5 41.5 -54.5q16.5 -29 24 -60.5q7.5 -31.5 7.5 -61.5q0 -70 -27 -129.5q-27 -59.5 -74.5 -103q-47.5 -43.5 -111.5 -67.5q-64 -24 -137 -23q-107 1 -154.5 48.5q-47.5 47.5 -47.5 135.5q0 72 22.5 127.5q22.5 55.5 59 93q36.5 37.5 82.5 57q46 19.5 94 19.5q40 -1 69 -11q29 -10 47.5 -27q18.5 -17 27.5 -39q9 -22 9 -46q0 -47 -27.5 -76.5q-27.5 -29.5 -68.5 -45.5q-41 -16 -88 -21.5q-47 -5.5 -86 -5.5q-8 0 -15 0q-7 0 -14 1q-1 -5 -1 -10q0 -5 0 -10q0 -44 23.5 -72.5q23.5 -28.5 75.5 -28.5q57 0 101.5 17.5q44.5 17.5 74.5 50q30 32.5 46 78.5q16 46 16 103q0 37 -15 73q-15 36 -41 64q-26 28 -61.5 45q-35.5 17 -75.5 17q-51 0 -98.5 -7q-47.5 -7 -84 -23.5q-36.5 -16.5 -58.5 -43.5q-22 -27 -22 -68q0 -23 7 -40q5 -11 -11 -18q-13 -5 -25 -5q-28 0 -44.5 21.5q-16.5 21.5 -16.5 59.5q0 65 29 106q29 41 76 64q47 23 107 32.5q60 9.5 123 13q63 3.5 123 4.5q60 1 107 7.5q47 6.5 76 21.5q29 15 29 47v9q0 13 10 14zt0 0zM382 378q-49 0 -84.5 -29.5q-35.5 -29.5 -46.5 -69.5q31 0 62.5 4q31.5 4 56 11.5q24.5 7.5 40 19.5q15.5 12 15.5 29q0 14 -10 24.5t-33 10.5z" />
<glyph unicode="&#39;" horiz-adv-x="203" d="M85 615q7 24 18 33q11 9 32 9h52q22 0 26 -16.5q4 -16.5 -7 -41.5l-64 -139q-9 -19 -19 -25q-10 -6 -27 -6h-23q-21 0 -26.5 12q-5.5 12 0.5 35z" />
<glyph unicode="&#40;" horiz-adv-x="330" d="M272 -175q-10 -16 -22.5 -16.5q-12.5 -0.5 -24.5 6.5q-43 25 -75.5 65q-32.5 40 -54.5 88.5q-22 48.5 -33 103.5q-11 55 -11 111q0 79 24 160.5q24 81.5 69.5 155.5q45.5 74 110.5 135.5q65 61.5 147 100.5q14 5 25.5 2.5q11.5 -2.5 19.5 -27.5l8 -27q5 -17 -2.5 -27q-7.5 -10 -20.5 -17q-57 -30 -104.5 -78q-47.5 -48 -82.5 -107.5q-35 -59.5 -54.5 -128q-19.5 -68.5 -19.5 -140.5q0 -45 7.5 -87q7.5 -42 21.5 -79q14 -37 34 -66q20 -29 46 -48q15 -12 18 -21.5q3 -9.5 -8 -27.5z" />
<glyph unicode="&#41;" horiz-adv-x="327" d="M55 722q10 16 22.5 16.5q12.5 0.5 24.5 -6.5q43 -25 75.5 -65q32.5 -40 54.5 -88.5q22 -48.5 33 -104q11 -55.5 11 -110.5q0 -79 -24 -160.5q-24 -81.5 -69.5 -155.5q-45.5 -74 -110.5 -135.5q-65 -61.5 -147 -100.5q-14 -5 -25.5 -2.5q-11.5 2.5 -19.5 27.5l-8 27q-5 17 2.5 27q7.5 10 20.5 17q57 30 104.5 78q47.5 48 82.5 107.5q35 59.5 54.5 128q19.5 68.5 19.5 140.5q0 45 -7.5 87q-7.5 42 -21.5 79q-14 37 -34 66q-20 29 -46 48q-15 12 -18 21.5q-3 9.5 8 27.5z" />
<glyph unicode="&#42;" horiz-adv-x="439" d="M213 616q-17 -11 -38 -15.5q-21 -4.5 -43 -4.5q-34 0 -58 16q-24 16 -24 42q0 29 17 40q17 11 33 11q18 0 36 -8.5q18 -8.5 33.5 -21.5q15.5 -13 27 -28.5q11.5 -15.5 16.5 -30.5zt0 0zM219 594q3 -14 3 -29q0 -21 -6 -41q-6 -20 -16.5 -36.5q-10.5 -16.5 -25 -26.5q-14.5 -10 -30.5 -10q-14 0 -23.5 5.5q-9.5 5.5 -15.5 13q-6 7.5 -9 15.5q-3 8 -3 14q0 20 13.5 37q13.5 17 33 30q19.5 13 41 20.5q21.5 7.5 38.5 7.5zt0 0zM231 635q-23 15 -38 46q-15 31 -15 60q0 26 11.5 43.5q11.5 17.5 41.5 17.5q28 0 39 -17.5q11 -17.5 11 -43.5q0 -15 -4 -30.5q-4 -15.5 -11 -30q-7 -14.5 -16 -26.5q-9 -12 -19 -19zt0 0zM249 616q4 15 16 30.5q12 15.5 27.5 28.5q15.5 13 33.5 21.5q18 8.5 35 8.5q16 0 33.5 -11q17.5 -11 17.5 -40q0 -26 -24.5 -42q-24.5 -16 -57.5 -16q-23 0 -44 4.5q-21 4.5 -37 15.5zt0 0zM243 594q16 0 38 -7.5q22 -7.5 41 -20.5q19 -13 32.5 -30q13.5 -17 13.5 -37q0 -6 -3 -14q-3 -8 -9 -15.5q-6 -7.5 -15.5 -13q-9.5 -5.5 -22.5 -5.5q-17 0 -31 10q-14 10 -24.5 26.5q-10.5 16.5 -16.5 36.5q-6 20 -6 41q0 15 3 29z" />
<glyph unicode="&#43;" horiz-adv-x="562" d="M406 359h137q26 0 29 -9.5q3 -9.5 0 -35.5l-3 -23q-2 -12 -4.5 -20.5q-2.5 -8.5 -7 -13.5q-4.5 -5 -13 -7.5q-8.5 -2.5 -21.5 -2.5h-137l-24 -142q-5 -27 -16 -32.5q-11 -5.5 -34 -5.5h-27q-25 0 -33.5 5.5q-8.5 5.5 -3.5 32.5l25 142h-137q-26 0 -30 10q-4 10 1 34l4 23q4 25 11.5 35q7.5 10 33.5 10h136l25 141q5 27 14.5 32.5q9.5 5.5 35.5 5.5h26q24 0 33 -5.5q9 -5.5 4 -32.5z" />
<glyph unicode="&#44;" horiz-adv-x="260" d="M27 -120q-4 6 -6.5 13.5q-2.5 7.5 5.5 13.5q25 23 46 52.5q21 29.5 21 60.5q0 12 -2.5 25.5q-2.5 13.5 -12.5 24.5q-8 9 -2 18q20 32 43 41q23 9 43 9q32 0 46 -22q14 -22 14 -49q0 -29 -15 -59.5q-15 -30.5 -38.5 -59q-23.5 -28.5 -50.5 -53q-27 -24.5 -51 -40.5q-8 -5 -15 -4.5q-7 0.5 -13 9.5z" />
<glyph unicode="&#45;" horiz-adv-x="452" d="M146 191q-26 0 -29.5 10q-3.5 10 0.5 34l4 26q4 25 11 35q7 10 34 10h236q26 0 29.5 -9.5q3.5 -9.5 -0.5 -35.5l-4 -26q-3 -24 -10.5 -34q-7.5 -10 -34.5 -10z" />
<glyph unicode="&#46;" horiz-adv-x="248" d="M56 45q0 38 26.5 63.5q26.5 25.5 64.5 25.5q30 0 47.5 -17.5q17.5 -17.5 17.5 -45.5q0 -39 -26.5 -63.5q-26.5 -24.5 -64.5 -24.5q-31 0 -48 17t-17 45z" />
<glyph unicode="&#47;" horiz-adv-x="431" d="M65 -73q-10 -15 -20 -21.5q-10 -6.5 -28 -6.5h-52q-21 0 -24.5 14.5q-3.5 14.5 9.5 34.5l473 681q10 15 20 21.5q10 6.5 28 6.5h45q21 0 24.5 -14.5q3.5 -14.5 -9.5 -34.5z" />
<glyph unicode="&#48;" horiz-adv-x="560" d="M209 212q0 -35 7.5 -57q7.5 -22 19.5 -34q12 -12 27 -16.5q15 -4.5 31 -4.5q35 0 65.5 25.5q30.5 25.5 53 68q22.5 42.5 35.5 98q13 55.5 13 115.5q0 59 -17.5 87.5q-17.5 28.5 -63.5 28.5q-32 0 -62.5 -22q-30.5 -22 -54.5 -62.5q-24 -40.5 -39 -98q-15 -57.5 -15 -128.5zt0 0zM93 202q0 93 22 172q22 79 61.5 137q39.5 58 94 90.5q54.5 32.5 120.5 32.5q91 0 139 -51q48 -51 48 -162q0 -79 -19.5 -157q-19.5 -78 -57 -139.5q-37.5 -61.5 -92.5 -99.5q-55 -38 -127 -38q-54 0 -90.5 18.5q-36.5 18.5 -58 48.5q-21.5 30 -31 68.5t-9.5 79.5z" />
<glyph unicode="&#49;" horiz-adv-x="356" d="M349 626q24 0 32.5 -8.5q8.5 -8.5 3.5 -34.5l-110 -544q-5 -23 -14.5 -31q-9.5 -8 -32.5 -8h-34q-23 0 -31.5 8.5q-8.5 8.5 -3.5 34.5l86 425l-68 -43q-13 -8 -24.5 -9q-11.5 -1 -19.5 16l-17 38q-7 18 -0.5 27.5q6.5 9.5 20.5 18.5l143 97q21 13 44 13z" />
<glyph unicode="&#50;" horiz-adv-x="466" d="M185 490q-7 -4 -13 -5q-6 -1 -13 4q-11 8 -17 21.5q-6 13.5 -6 25.5q0 27 19 46q19 19 47.5 30.5q28.5 11.5 61 16.5q32.5 5 58.5 5q49 0 83.5 -13q34.5 -13 56 -35.5q21.5 -22.5 31.5 -52.5q10 -30 10 -64q0 -48 -15.5 -84q-15.5 -36 -41 -64q-25.5 -28 -57.5 -50.5q-32 -22.5 -66 -42.5q-20 -12 -42 -23q-22 -11 -43 -24q-21 -13 -38 -29.5q-17 -16.5 -25 -38.5l223 0q9 0 16.5 -1q7.5 -1 12.5 -5q5 -4 7 -12.5q2 -8.5 -1 -24.5l-5 -34q-4 -22 -11.5 -29q-7.5 -7 -35.5 -7h-308q-24 -1 -33.5 13.5q-9.5 14.5 -3.5 52.5q11 58 41 98.5q30 40.5 68.5 71q38.5 30.5 80.5 54q42 23.5 77 48q35 24.5 57.5 53q22.5 28.5 22.5 68.5q-2 36 -22 50q-20 14 -49 14q-32 0 -67 -10t-60 -23z" />
<glyph unicode="&#51;" horiz-adv-x="441" d="M185 520q-23 0 -31 7.5q-8 7.5 -4 26.5l7 30q5 23 13.5 33q8.5 10 28.5 10h277q14 0 24 -3q10 -3 11 -21l0 -25q0 -37 -18 -55l-176 -160q35 -4 60.5 -17.5q25.5 -13.5 41.5 -33.5q16 -20 23.5 -45q7.5 -25 7.5 -52q0 -47 -14 -88q-14 -41 -44 -72.5q-30 -31.5 -76.5 -49.5q-46.5 -18 -111.5 -18q-19 0 -47.5 4q-28.5 4 -55.5 15q-27 11 -46 30q-19 19 -19 49q0 28 17 51q8 7 15 6q7 -1 14 -5q38 -23 68 -30q30 -7 56 -7q36 0 60 8q24 8 39 22q15 14 21.5 33q6.5 19 6.5 41q0 22 -9 36q-9 14 -24.5 22q-15.5 8 -37.5 11.5q-22 3.5 -47 3.5h-24q-12 0 -18 6.5q-6 6.5 -4 23.5l3 28q3 17 20 33l172 152z" />
<glyph unicode="&#52;" horiz-adv-x="503" d="M443 129l-18 -90q-5 -23 -14.5 -31q-9.5 -8 -32.5 -8h-34q-23 0 -31.5 8.5q-8.5 8.5 -3.5 34.5l18 86h-235q-28 0 -35 12q-7 12 -2 38l4 22q4 19 12 32q8 13 25 33l281 330q16 17 34 23.5q18 6.5 36 6.5h52q24 0 32.5 -8.5q8.5 -8.5 3.5 -34.5l-71 -347h28q9 0 16.5 -1q7.5 -1 12.5 -4.5q5 -3.5 7 -12q2 -8.5 -1 -23.5l-5 -31q-4 -21 -11.5 -28q-7.5 -7 -35.5 -7zM194 236h155l50 240z" />
<glyph unicode="&#53;" horiz-adv-x="470" d="M234 100q24 0 47 7q23 7 41 22.5q18 15.5 29 39q11 23.5 11 56.5q0 13 -4 25.5q-4 12.5 -12.5 23q-8.5 10.5 -23 17q-14.5 6.5 -35.5 6.5q-25 0 -51 -7.5q-26 -7.5 -47 -16.5q-11 -5 -20 -7q-9 -2 -20 4l-19 12q-10 6 -13.5 15.5q-3.5 9.5 3.5 32.5l76 256q8 22 18 31.5q10 9.5 29 9.5h262q9 0 16.5 -1q7.5 -1 12.5 -5q5 -4 7 -12.5q2 -8.5 -1 -24.5l-5 -34q-4 -22 -11.5 -29q-7.5 -7 -35.5 -7h-208l-38 -125q19 5 39.5 9q20.5 4 40.5 4q43 0 73 -14q30 -14 49 -36.5q19 -22.5 27 -52.5q8 -30 8 -62q0 -67 -21 -114.5q-21 -47.5 -55.5 -77.5q-34.5 -30 -78 -43.5q-43.5 -13.5 -87.5 -13.5q-15 0 -43.5 1.5q-28.5 1.5 -56.5 9.5q-28 8 -49 26.5q-21 18.5 -21 51.5q0 29 16 48q11 13 24 6q30 -17 62.5 -24t64.5 -7z" />
<glyph unicode="&#54;" horiz-adv-x="520" d="M251 373q29 26 60.5 34.5q31.5 8.5 65.5 8.5q34 0 62.5 -12q28.5 -12 48.5 -34q20 -22 31 -53q11 -31 11 -68q0 -53 -17 -100.5q-17 -47.5 -48.5 -83.5q-31.5 -36 -76.5 -57q-45 -21 -101 -21q-91 0 -141 48.5q-50 48.5 -48 146.5q2 115 40 200q38 85 97.5 141q59.5 56 133 83.5q73.5 27.5 147.5 27.5q20 0 30 -4.5q10 -4.5 8 -20.5l-12 -56q-3 -15 -13 -20.5q-10 -5.5 -22 -5.5q-31 0 -69 -8q-38 -8 -74.5 -26q-36.5 -18 -68 -47.5q-31.5 -29.5 -49.5 -72.5zM215 230q-5 -28 -5 -45q0 -43 20.5 -67.5q20.5 -24.5 61.5 -24.5q25 0 46.5 10q21.5 10 37.5 28.5q16 18.5 25.5 44.5q9.5 26 9.5 57q0 38 -19 58q-19 20 -53 20q-32 0 -68 -19.5t-56 -61.5z" />
<glyph unicode="&#55;" horiz-adv-x="433" d="M177 514q-23 0 -31 7.5q-8 7.5 -4 26.5l7 35q5 23 13.5 33q8.5 10 28.5 10h308q29 0 36 -13.5q7 -13.5 2 -39.5l-6 -32q-3 -15 -14 -32l-325 -487q-9 -14 -20 -18q-11 -4 -22 -4h-47q-26 0 -33.5 15q-7.5 15 6.5 35l314 464z" />
<glyph unicode="&#56;" horiz-adv-x="520" d="M364 530q-14 0 -30 -3.5q-16 -3.5 -29.5 -11.5q-13.5 -8 -22.5 -21q-9 -13 -9 -32q0 -28 20.5 -46.5q20.5 -18.5 43.5 -31.5q49 21 74 43.5q25 22.5 25 51.5q0 23 -19 37q-19 14 -53 14zt0 0zM154 459q0 44 20 76.5q20 32.5 51.5 54.5q31.5 22 71 32.5q39.5 10.5 78.5 10.5q31 0 62.5 -8.5q31.5 -8.5 56.5 -26q25 -17.5 41 -44q16 -26.5 16 -62.5q0 -51 -35 -94q-35 -43 -98 -72q38 -32 62.5 -70.5q24.5 -38.5 24.5 -82.5q0 -47 -20.5 -81.5q-20.5 -34.5 -53.5 -57.5q-33 -23 -74.5 -34.5q-41.5 -11.5 -84.5 -11.5q-38 0 -72.5 8.5q-34.5 8.5 -61.5 26q-27 17.5 -43 45q-16 27.5 -16 66.5q0 59 36 111.5q36 52.5 108 88.5q-27 23 -48 53q-21 30 -21 72zt0 0zM387 174q-1 32 -25.5 56q-24.5 24 -60.5 47q-47 -22 -73.5 -54q-26.5 -32 -26.5 -67q0 -17 7 -29.5q7 -12.5 18.5 -20q11.5 -7.5 26.5 -11q15 -3.5 31 -3.5q19 0 37.5 4.5q18.5 4.5 33 14.5q14.5 10 23.5 25.5t9 37.5z" />
<glyph unicode="&#57;" horiz-adv-x="511" d="M124 -13q-20 0 -30 4.5q-10 4.5 -8 20.5l11 56q4 18 13.5 22q9.5 4 21.5 4q34 0 72.5 5.5q38.5 5.5 74 22q35.5 16.5 65 46.5q29.5 30 44.5 80l-5 0q-29 -26 -60 -34.5q-31 -8.5 -65 -8.5q-76 0 -114 45.5q-38 45.5 -38 123.5q0 47 16.5 93.5q16.5 46.5 47.5 83.5q31 37 75 60q44 23 99 23q88 0 138.5 -47q50.5 -47 50.5 -141q0 -136 -36 -224.5q-36 -88.5 -93.5 -140.5q-57.5 -52 -131 -73q-73.5 -21 -148.5 -21zt0 0zM418 391q2 10 3 20.5q1 10.5 1 21.5q0 18 -4 35q-4 17 -13 30.5q-9 13.5 -25 21.5q-16 8 -40 8q-50 0 -81.5 -37.5q-31.5 -37.5 -33.5 -101.5q0 -79 70 -79q32 0 67.5 19.5t55.5 61.5z" />
<glyph unicode="&#58;" horiz-adv-x="222" d="M106 393q0 38 26.5 63.5q26.5 25.5 64.5 25.5q30 0 47.5 -17.5q17.5 -17.5 17.5 -45.5q0 -39 -26.5 -63.5q-26.5 -24.5 -64.5 -24.5q-31 0 -48 17q-17 17 -17 45zt0 0zM56 45q0 38 26.5 63.5q26.5 25.5 64.5 25.5q30 0 47.5 -17.5q17.5 -17.5 17.5 -45.5q0 -39 -26.5 -63.5q-26.5 -24.5 -64.5 -24.5q-31 0 -48 17t-17 45z" />
<glyph unicode="&#59;" horiz-adv-x="241" d="M26 -120q-4 6 -6.5 13.5q-2.5 7.5 5.5 13.5q25 23 46 52.5q21 29.5 21 60.5q0 12 -2.5 25.5q-2.5 13.5 -12.5 24.5q-8 9 -2 18q20 32 43 41q23 9 43 9q32 0 46 -22q14 -22 14 -49q0 -29 -15 -59.5q-15 -30.5 -38.5 -59q-23.5 -28.5 -50.5 -53q-27 -24.5 -51 -40.5q-8 -5 -15 -4.5q-7 0.5 -13 9.5zM117 393q0 38 26.5 63.5q26.5 25.5 64.5 25.5q30 0 47.5 -17.5q17.5 -17.5 17.5 -45.5q0 -39 -26.5 -63.5q-26.5 -24.5 -64.5 -24.5q-31 0 -48 17t-17 45z" />
<glyph unicode="&#60;" horiz-adv-x="459" d="M93 320q3 17 9.5 24.5q6.5 7.5 23.5 16.5l311 162q21 11 29.5 6.5q8.5 -4.5 6.5 -21.5l-8 -59q-3 -16 -9.5 -26q-6.5 -10 -25.5 -18l-160 -78q-35 -15 -72 -26q17 -5 31.5 -11.5q14.5 -6.5 30.5 -14.5l139 -70q14 -8 16 -17q2 -9 -1 -26l-10 -58q-8 -41 -43 -18l-254 162q-15 9 -19 15.5q-4 6.5 -1 22.5z" />
<glyph unicode="&#61;" horiz-adv-x="595" d="M169 343q-27 0 -31 10q-4 10 1 34l4 23q4 25 11.5 35q7.5 10 33.5 10h387q27 0 30.5 -11q3.5 -11 -0.5 -34l-4 -23q-2 -12 -4.5 -20.5q-2.5 -8.5 -7 -13.5q-4.5 -5 -12.5 -7.5q-8 -2.5 -21 -2.5zM136 150q-27 0 -31 10q-4 10 1 34l4 23q4 25 11.5 35q7.5 10 33.5 10h387q27 0 30.5 -11q3.5 -11 -0.5 -34l-4 -23q-2 -12 -4.5 -20.5q-2.5 -8.5 -7 -13.5q-4.5 -5 -12.5 -7.5q-8 -2.5 -21 -2.5z" />
<glyph unicode="&#62;" horiz-adv-x="459" d="M484 289q-3 -17 -9.5 -24.5q-6.5 -7.5 -23.5 -16.5l-311 -162q-21 -11 -29.5 -6.5q-8.5 4.5 -6.5 21.5l8 59q3 16 9.5 26q6.5 10 25.5 18l160 78q35 15 72 26q-17 5 -31.5 11.5q-14.5 6.5 -30.5 14.5l-139 70q-14 8 -16 17q-2 9 1 26l10 58q8 41 43 18l254 -162q15 -9 19 -15.5q4 -6.5 1 -22.5z" />
<glyph unicode="&#63;" horiz-adv-x="345" d="M272 256q5 -3 7 -8.5q2 -5.5 -3 -15.5q-11 -17 -28.5 -25q-17.5 -8 -34.5 -8q-18 0 -32.5 8q-14.5 8 -24.5 21.5q-10 13.5 -15.5 30q-5.5 16.5 -5.5 34.5q0 36 15 62.5q15 26.5 37 47.5q22 21 48 38q26 17 48 34q22 17 37 35q15 18 15 42q0 45 -54 45q-30 0 -56.5 -8.5q-26.5 -8.5 -55.5 -22.5q-7 -3 -13 -4q-6 -1 -13 4q-19 19 -19 46q0 25 19.5 43q19.5 18 47 28.5q27.5 10.5 58.5 15.5q31 5 54 5q30 0 57.5 -7.5q27.5 -7.5 48 -23.5q20.5 -16 32.5 -40.5q12 -24.5 12 -58.5q0 -43 -15.5 -75q-15.5 -32 -39.5 -56q-24 -24 -51 -42.5q-27 -18.5 -51 -34.5q-24 -16 -39.5 -31.5q-15.5 -15.5 -15.5 -34.5q0 -13 8.5 -25.5q8.5 -12.5 22.5 -18.5zt0 0zM108 45q0 38 26.5 63.5q26.5 25.5 64.5 25.5q30 0 47.5 -17.5q17.5 -17.5 17.5 -45.5q0 -39 -26.5 -63.5q-26.5 -24.5 -64.5 -24.5q-31 0 -48 17t-17 45z" />
<glyph unicode="&#64;" horiz-adv-x="957" d="M739 77q26 0 45.5 21q19.5 21 33 54q13.5 33 20 73q6.5 40 6.5 77q0 46 -12.5 86q-12.5 40 -40 70q-27.5 30 -72.5 47q-45 17 -110 17q-82 0 -151 -28.5q-69 -28.5 -119.5 -79.5q-50.5 -51 -78.5 -121q-28 -70 -28 -154q0 -65 19.5 -110q19.5 -45 53 -73.5q33.5 -28.5 78 -41q44.5 -12.5 93.5 -12.5q36 0 71 6.5q35 6.5 71 13.5q14 2 24 -1q10 -3 9 -21l-5 -55q-2 -14 -5.5 -19.5q-3.5 -5.5 -16.5 -10.5q-44 -11 -84 -18q-40 -7 -81 -7q-80 0 -143 24.5q-63 24.5 -107 68.5q-44 44 -67.5 106q-23.5 62 -23.5 136q0 122 41 216q41 94 110.5 157.5q69.5 63.5 160 96q90.5 32.5 189.5 32.5q73 0 135 -21.5q62 -21.5 107 -62q45 -40.5 70.5 -98.5q25.5 -58 25.5 -131q0 -59 -12.5 -120q-12.5 -61 -41 -110q-28.5 -49 -75 -79.5q-46.5 -30.5 -115.5 -28.5q-15 0 -32 5.5q-17 5.5 -32 17.5q-15 12 -26 31q-11 19 -12 47q-34 -45 -75 -73q-41 -28 -94 -28q-26 0 -49.5 9q-23.5 9 -41 28q-17.5 19 -27.5 48q-10 29 -10 68q0 42 16.5 94.5q16.5 52.5 51 99q34.5 46.5 89 78q54.5 31.5 131.5 31.5q27 0 53 -4q26 -4 51 -10q27 -9 39 -23q12 -14 7 -39l-40 -181q-6 -29 -6 -51q0 -26 8.5 -36.5q8.5 -10.5 24.5 -10.5zt0 0zM604 199l32 136q-9 2 -18 3q-9 1 -18 1q-36 0 -67.5 -17q-31.5 -17 -54.5 -44q-23 -27 -36 -61.5q-13 -34.5 -13 -70.5q0 -38 13.5 -49.5q13.5 -11.5 34.5 -11.5q21 0 41 11q20 11 37.5 28q17.5 17 30 37t18.5 38z" />
<glyph unicode="&#65;" horiz-adv-x="573" d="M390 427v110l-47 -110l-93 -167h151zM-6 0q-23 1 -26 17.5q-3 16.5 11 37.5l376 594q9 13 17 17.5q8 4.5 22 4.5h40q17 0 25.5 -5.5q8.5 -5.5 11.5 -19.5l86 -591q4 -25 0.5 -40q-3.5 -15 -27.5 -15h-43q-12 0 -21 0q-9 0 -15.5 3q-6.5 3 -10.5 11q-4 8 -6 24l-16 108h-241l-76 -118q-13 -21 -24.5 -24.5q-11.5 -3.5 -23.5 -3.5z" />
<glyph unicode="&#66;" horiz-adv-x="550" d="M162 618q5 23 14.5 31q9.5 8 32.5 8h169q55 0 94 -11q39 -11 64 -30.5q25 -19.5 36 -46.5q11 -27 11 -59q0 -51 -27 -97q-27 -46 -82 -68q43 -18 60.5 -53q17.5 -35 17.5 -73q0 -45 -17.5 -85q-17.5 -40 -53.5 -70q-36 -30 -91 -47q-55 -17 -131 -17h-178q-23 0 -31.5 8.5q-8.5 8.5 -3.5 34.5zM215 279l-33 -165h114q36 0 61 8q25 8 40.5 21.5q15.5 13.5 22.5 31.5q7 18 7 39q0 27 -21 46q-21 19 -65 19zM236 383h102q51 0 84 25.5q33 25.5 33 69.5q0 26 -20 46q-20 20 -71 20l-95 0z" />
<glyph unicode="&#67;" horiz-adv-x="548" d="M37 241q0 84 25.5 161.5q25.5 77.5 74.5 137q49 59.5 121 95.5q72 36 164 36q24 0 58 -4.5q34 -4.5 64.5 -16.5q30.5 -12 52 -32q21.5 -20 21.5 -51q0 -31 -26 -55q-13 -11 -30 0q-33 21 -71.5 32q-38.5 11 -77.5 11q-52 0 -98 -20.5q-46 -20.5 -80.5 -58.5q-34.5 -38 -54.5 -93.5q-20 -55.5 -20 -124.5q0 -42 12 -71.5q12 -29.5 32 -48q20 -18.5 47.5 -27.5q27.5 -9 59.5 -9q38 0 81 12q43 12 100 38q10 5 19.5 3q9.5 -2 14.5 -15l12 -36q7 -21 0 -30.5q-7 -9.5 -12 -13.5q-60 -41 -117.5 -57q-57.5 -16 -111.5 -16q-52 0 -99 14.5q-47 14.5 -83 45.5q-36 31 -57 79t-21 115z" />
<glyph unicode="&#68;" horiz-adv-x="614" d="M521 379q0 53 -22 85.5q-22 32.5 -57.5 50q-35.5 17.5 -81.5 23.5q-46 6 -94 7l-86 -436q10 -1 19.5 -1q9.5 0 20.5 0q66 0 121.5 16q55.5 16 95 49q39.5 33 62 84q22.5 51 22.5 122zt0 0zM286 657q75 0 140 -13q65 -13 114 -43.5q49 -30.5 77 -82q28 -51.5 28 -128.5q0 -105 -35 -180q-35 -75 -95 -123.5q-60 -48.5 -140.5 -71q-80.5 -22.5 -172.5 -22.5q-28 0 -57.5 1q-29.5 1 -53 6q-23.5 5 -37 17q-13.5 12 -8.5 34l114 567q4 20 17 28.5q13 8.5 31 10.5z" />
<glyph unicode="&#69;" horiz-adv-x="481" d="M80 0q-23 0 -31 8.5q-8 8.5 -3 33.5l116 576q5 23 14 31q9 8 32 8h326q18 0 30 -8q12 -8 8 -37l-5 -28q-2 -13 -5 -21q-3 -8 -8.5 -13q-5.5 -5 -14 -7q-8.5 -2 -22.5 -2h-250q-8 -37 -14 -73.5q-6 -36.5 -14 -74.5l192 0q18 0 30 -8q12 -8 8 -37l-5 -28q-2 -13 -5 -21q-3 -8 -8.5 -13q-5.5 -5 -14 -7q-8.5 -2 -22.5 -2h-198l-33 -161h245q18 0 30 -8q12 -8 8 -37l-5 -28q-2 -13 -5 -21q-3 -8 -8.5 -13q-5.5 -5 -14 -7q-8.5 -2 -22.5 -2z" />
<glyph unicode="&#70;" horiz-adv-x="465" d="M213 265l-44 -226q-5 -23 -14.5 -31q-9.5 -8 -32.5 -8h-40q-23 0 -31.5 8.5q-8.5 8.5 -3.5 33.5l116 576q5 23 14 31q9 8 32 8h332q18 0 30 -8q12 -8 8 -37l-5 -28q-2 -13 -5 -21q-3 -8 -8.5 -13q-5.5 -5 -14 -7q-8.5 -2 -21.5 -2h-257l-31 -160h190q18 0 30 -8q12 -8 8 -37l-5 -28q-2 -13 -5 -21q-3 -8 -8.5 -13q-5.5 -5 -14 -7q-8.5 -2 -22.5 -2z" />
<glyph unicode="&#71;" horiz-adv-x="617" d="M371 246q-23 0 -31 11q-8 11 -5 31l5 27q5 23 13 33.5q8 10.5 31 10.5h192q32 0 41 -10q9 -10 3 -39l-38 -184q-5 -18 -11 -29.5q-6 -11.5 -18 -22.5q-30 -26 -63.5 -43q-33.5 -17 -67 -26.5q-33.5 -9.5 -65 -13.5q-31.5 -4 -56.5 -4q-52 0 -99 14.5q-47 14.5 -83 45.5q-36 31 -57 79q-21 48 -21 115q0 84 25.5 161.5q25.5 77.5 74.5 137q49 59.5 121 95.5q72 36 164 36q24 0 58 -4.5q34 -4.5 64.5 -16.5q30.5 -12 52 -32q21.5 -20 21.5 -51q0 -31 -26 -55q-13 -11 -30 0q-33 21 -71.5 32q-38.5 11 -77.5 11q-52 0 -98 -20.5q-46 -20.5 -80.5 -58.5q-34.5 -38 -54.5 -93.5q-20 -55.5 -20 -124.5q0 -42 12 -71.5q12 -29.5 32 -48.5q20 -19 47.5 -28q27.5 -9 59.5 -9q39 0 77.5 9.5q38.5 9.5 77.5 33.5l20 102z" />
<glyph unicode="&#72;" horiz-adv-x="662" d="M499 276h-284l-47 -237q-5 -23 -14.5 -31q-9.5 -8 -32.5 -8h-40q-23 0 -31.5 8.5q-8.5 8.5 -3.5 34.5l116 575q5 23 14.5 31q9.5 8 32.5 8h37q24 0 32.5 -8.5q8.5 -8.5 3.5 -34.5l-43 -218h284l45 222q5 23 14.5 31q9.5 8 33.5 8h36q24 0 32.5 -8.5q8.5 -8.5 3.5 -34.5l-114 -575q-5 -23 -14.5 -31q-9.5 -8 -32.5 -8h-40q-23 0 -31.5 8.5q-8.5 8.5 -3.5 34.5z" />
<glyph unicode="&#73;" horiz-adv-x="287" d="M180 618q5 23 14.5 31q9.5 8 32.5 8h37q24 0 32.5 -8.5q8.5 -8.5 3.5 -34.5l-114 -575q-5 -23 -14.5 -31q-9.5 -8 -32.5 -8h-40q-23 0 -31.5 8.5q-8.5 8.5 -3.5 34.5z" />
<glyph unicode="&#74;" horiz-adv-x="287" d="M214 175q-11 -51 -24.5 -96q-13.5 -45 -36 -84q-22.5 -39 -57 -71.5q-34.5 -32.5 -86.5 -58.5q-10 -5 -22 -5q-12 0 -20 16l-22 40q-13 26 18 45q30 20 51 43.5q21 23.5 35.5 48.5q14.5 25 23 51q8.5 26 14.5 52l92 462q5 23 14.5 31q9.5 8 32.5 8h37q24 0 32.5 -8.5q8.5 -8.5 3.5 -34.5z" />
<glyph unicode="&#75;" horiz-adv-x="551" d="M162 618q5 23 14.5 31q9.5 8 32.5 8h37q24 0 32.5 -8.5q8.5 -8.5 3.5 -34.5l-43 -216h72l192 234q12 16 26.5 20.5q14.5 4.5 29.5 4.5h49q27 0 30 -17.5q3 -17.5 -14 -37.5l-219 -257l150 -292q4 -9 6.5 -18.5q2.5 -9.5 1 -17q-1.5 -7.5 -7.5 -12.5q-6 -5 -19 -5h-58q-17 0 -30 5.5q-13 5.5 -21 24.5l-117 241q-4 7 -9 12q-5 5 -15 5h-69l-49 -249q-5 -23 -14.5 -31q-9.5 -8 -32.5 -8h-40q-23 0 -31.5 8.5q-8.5 8.5 -3.5 34.5z" />
<glyph unicode="&#76;" horiz-adv-x="495" d="M76 0q-13 0 -20 3.5q-7 3.5 -9.5 10.5q-2.5 7 -2 16.5q0.5 9.5 2.5 21.5l114 566q5 23 14.5 31q9.5 8 32.5 8h37q24 0 32.5 -8.5q8.5 -8.5 3.5 -34.5l-98 -493h256q19 0 32 -7.5q13 -7.5 9 -38.5l-6 -32q-2 -13 -5 -21q-3 -8 -8.5 -13q-5.5 -5 -14 -7q-8.5 -2 -22.5 -2z" />
<glyph unicode="&#77;" horiz-adv-x="770" d="M696 39q-4 -23 -14 -31q-10 -8 -33 -8h-40q-23 0 -32 8.5q-9 8.5 -4 34.5l52 291l31 134l-60 -134l-170 -294q-10 -19 -19.5 -26.5q-9.5 -7.5 -29.5 -7.5h-37q-20 0 -28 8q-8 8 -12 28l-54 292l-21 134l-10 -134l-65 -295q-5 -23 -14.5 -31q-9.5 -8 -32.5 -8h-39q-23 0 -31.5 8.5q-8.5 8.5 -3.5 34.5l134 568q8 31 22 38.5q14 7.5 37 7.5h45q21 0 32.5 -10q11.5 -10 16.5 -38l70 -449l245 449q28 48 64 48h48q11 0 20.5 -0.5q9.5 -0.5 15.5 -5.5q6 -5 8.5 -15.5q2.5 -10.5 -0.5 -30.5z" />
<glyph unicode="&#78;" horiz-adv-x="655" d="M235 476q2 -44 -3 -86l-69 -351q-5 -23 -14.5 -31q-9.5 -8 -32.5 -8h-35q-23 0 -31.5 8.5q-8.5 8.5 -3.5 34.5l114 575q5 23 14.5 31q9.5 8 33.5 8h31q19 0 29.5 -10q10.5 -10 18.5 -25l175 -363l29 -87q-1 22 -1 43.5q0 21.5 2 42.5l72 360q5 23 14.5 31q9.5 8 33.5 8h33q24 0 32.5 -8.5q8.5 -8.5 3.5 -34.5l-115 -575q-5 -23 -14.5 -31q-9.5 -8 -32.5 -8h-33q-21 0 -29.5 9q-8.5 9 -13.5 19l-179 361z" />
<glyph unicode="&#79;" horiz-adv-x="676" d="M315 -12q-139 0 -208.5 65.5q-69.5 65.5 -69.5 193.5q0 83 30 159q30 76 83.5 134q53.5 58 128.5 93q75 35 165 37q127 -2 195 -70q68 -68 68 -189q0 -83 -28 -158.5q-28 -75.5 -79 -133.5q-51 -58 -123 -93q-72 -35 -161 -38zM428 559q-57 0 -106 -26q-49 -26 -85 -69.5q-36 -43.5 -56.5 -99.5q-20.5 -56 -20.5 -117q0 -72 42.5 -109.5q42.5 -37.5 114.5 -37.5q56 0 104.5 26q48.5 26 84.5 69q36 43 56.5 99q20.5 56 20.5 117q0 74 -41.5 111t-113.5 37z" />
<glyph unicode="&#80;" horiz-adv-x="516" d="M162 618q5 23 14.5 31q9.5 8 32.5 8h153q63 0 107 -13.5q44 -13.5 71 -37q27 -23.5 39 -55.5q12 -32 12 -69q0 -54 -18 -102.5q-18 -48.5 -57 -85q-39 -36.5 -100 -58q-61 -21.5 -147 -21.5q-27 0 -39 0q-12 0 -27 1l-35 -177q-5 -23 -14.5 -31q-9.5 -8 -32.5 -8h-40q-23 0 -31.5 8.5q-8.5 8.5 -3.5 34.5zM268 543l-42 -215q11 -1 23.5 -1q12.5 0 22.5 0q54 0 92 11.5q38 11.5 61.5 30.5q23.5 19 34.5 43.5q11 24.5 11 51.5q0 35 -29 57q-29 22 -92 22z" />
<glyph unicode="&#81;" horiz-adv-x="674" d="M562 -61q43 0 85 17q11 4 17 -5q11 -20 11 -42q0 -39 -31.5 -64.5q-31.5 -25.5 -91.5 -25.5q-42 0 -77.5 9.5q-35.5 9.5 -65 26q-29.5 16.5 -53.5 39.5q-24 23 -44 49q-30 41 -64 50q-105 15 -156.5 79q-51.5 64 -51.5 175q0 83 29.5 159q29.5 76 82.5 134q53 58 127 93q74 35 164 37q125 -2 193 -70q68 -68 68 -189q0 -74 -22 -142q-22 -68 -63 -123.5q-41 -55.5 -99.5 -94.5q-58.5 -39 -130.5 -54q37 -32 80.5 -45q43.5 -13 92.5 -13zt0 0zM427 559q-56 0 -104.5 -26q-48.5 -26 -84 -69.5q-35.5 -43.5 -56 -99.5q-20.5 -56 -20.5 -117q0 -72 42 -109.5q42 -37.5 113 -37.5q56 0 104 26q48 26 83.5 69q35.5 43 55.5 99q20 56 20 117q0 74 -41 111t-112 37z" />
<glyph unicode="&#82;" horiz-adv-x="542" d="M208 243l-40 -204q-5 -23 -14.5 -31q-9.5 -8 -32.5 -8h-40q-23 0 -31.5 8.5q-8.5 8.5 -3.5 34.5l116 575q5 23 14.5 31q9.5 8 32.5 8h153q60 0 103.5 -13q43.5 -13 71.5 -36.5q28 -23.5 41 -55.5q13 -32 13 -70q0 -82 -43.5 -134.5q-43.5 -52.5 -113.5 -79.5l93 -215q4 -9 6.5 -18.5q2.5 -9.5 1 -17q-1.5 -7.5 -8 -12.5q-6.5 -5 -19.5 -5h-57q-17 0 -30.5 5.5q-13.5 5.5 -21.5 24.5l-80 196q-4 7 -9 12q-5 5 -15 5zM268 543l-38 -190h79q43 0 73.5 9q30.5 9 50 25q19.5 16 29 37.5q9.5 21.5 9.5 46.5q0 35 -32.5 53.5q-32.5 18.5 -103.5 18.5z" />
<glyph unicode="&#83;" horiz-adv-x="467" d="M317 670q29 0 64 -5.5q35 -5.5 65 -17.5q30 -12 50 -30.5q20 -18.5 20 -45.5q0 -31 -27 -53q-18 -13 -33 -4q-30 20 -71.5 32.5q-41.5 12.5 -82.5 12.5q-16 0 -33 -4q-17 -4 -31.5 -12.5q-14.5 -8.5 -23.5 -22q-9 -13.5 -9 -32.5q0 -25 20 -43q20 -18 50 -34q30 -16 64.5 -33q34.5 -17 64.5 -40.5q30 -23.5 50 -55q20 -31.5 20 -77.5q0 -45 -13.5 -85q-13.5 -40 -45 -69q-31.5 -29 -82 -46q-50.5 -17 -123.5 -17q-33 0 -67.5 6.5q-34.5 6.5 -63 20q-28.5 13.5 -46.5 34.5q-18 21 -18 50q0 15 4 30q4 15 13 29q12 15 29 3q35 -23 79 -40q44 -17 92 -17q24 0 45 4.5q21 4.5 37 14.5q16 10 25.5 26q9.5 16 9.5 39q0 27 -20 46.5q-20 19.5 -49.5 36q-29.5 16.5 -64.5 33.5q-35 17 -64.5 40.5q-29.5 23.5 -49.5 55q-20 31.5 -20 77.5q1 49 21.5 85q20.5 36 53.5 60q33 24 75 36t86 12z" />
<glyph unicode="&#84;" horiz-adv-x="483" d="M391 542l-99 -503q-5 -23 -14.5 -31q-9.5 -8 -32.5 -8h-40q-23 0 -31.5 8.5q-8.5 8.5 -3.5 34.5l100 499h-157q-23 0 -31.5 11q-8.5 11 -5.5 32l5 27q5 24 13.5 34.5q8.5 10.5 31.5 10.5h441q18 0 30 -8q12 -8 8 -37l-5 -27q-2 -13 -5 -21q-3 -8 -8.5 -13q-5.5 -5 -14 -7q-8.5 -2 -21.5 -2z" />
<glyph unicode="&#85;" horiz-adv-x="638" d="M217 306q-5 -33 -8.5 -69q-3.5 -36 4 -66q7.5 -30 29.5 -49q22 -19 67 -19q29 0 56.5 7q27.5 7 51.5 29q24 22 43.5 63q19.5 41 33.5 109l63 307q5 23 14.5 31q9.5 8 32.5 8h34q24 0 32.5 -8.5q8.5 -8.5 3.5 -34.5l-56 -292q-18 -95 -46.5 -159q-28.5 -64 -69 -103q-40.5 -39 -93 -55.5q-52.5 -16.5 -117.5 -16.5q-77 0 -121.5 29q-44.5 29 -65 77q-20.5 48 -20.5 110q0 62 13 128l58 286q5 23 14.5 31q9.5 8 32.5 8h37q24 0 32.5 -8.5q8.5 -8.5 3.5 -34.5z" />
<glyph unicode="&#86;" horiz-adv-x="543" d="M229 0q-15 0 -27.5 7q-12.5 7 -16.5 34l-83 570q-4 24 3 35q7 11 27 11h59q18 0 26.5 -7.5q8.5 -7.5 11.5 -30.5l57 -460l237 468q10 17 18 23.5q8 6.5 23 6.5h58q48 0 20 -55l-308 -569q-14 -24 -26 -28.5q-12 -4.5 -24 -4.5z" />
<glyph unicode="&#87;" horiz-adv-x="842" d="M553 657q15 0 25.5 -8.5q10.5 -8.5 12.5 -38.5l12 -435l206 452q10 19 18 24.5q8 5.5 24 5.5h63q14 0 20.5 -4q6.5 -4 7.5 -11.5q1 -7.5 -2.5 -17.5q-3.5 -10 -8.5 -21l-276 -564q-11 -23 -21 -31q-10 -8 -24 -8h-66q-15 0 -25 9q-10 9 -13 37l-20 353l4 101l-31 -101l-166 -361q-11 -26 -21 -32q-10 -6 -23 -6h-67q-16 0 -25 8.5q-9 8.5 -11 37.5l-45 565q-2 23 4 34.5q6 11.5 28 11.5h57q17 0 26.5 -8.5q9.5 -8.5 11.5 -31.5l22 -441l192 442q12 25 23.5 32q11.5 7 25.5 7z" />
<glyph unicode="&#88;" horiz-adv-x="535" d="M483 627q17 20 28 25q11 5 25 5h59q26 0 30.5 -15q4.5 -15 -6.5 -29l-242 -283l133 -284q8 -17 3.5 -31.5q-4.5 -14.5 -33.5 -14.5h-47q-17 0 -29 6q-12 6 -20 21l-97 209l-174 -209q-14 -17 -24 -22q-10 -5 -26 -5h-61q-22 0 -27.5 16.5q-5.5 16.5 4.5 30.5l258 301l-133 265q-8 17 -3 30.5q5 13.5 35 13.5h55q17 0 26.5 -4.5q9.5 -4.5 20.5 -26.5l88 -187z" />
<glyph unicode="&#89;" horiz-adv-x="511" d="M221 275q-32 81 -68 168q-36 87 -68 168q-6 17 -0.5 31.5q5.5 14.5 29.5 14.5h63q17 0 24 -9.5q7 -9.5 14 -26.5l88 -234l187 246q11 15 22.5 19.5q11.5 4.5 23.5 4.5h63q19 0 24.5 -14q5.5 -14 -9.5 -36q-28 -36 -63.5 -80.5q-35.5 -44.5 -72.5 -90.5q-37 -46 -72.5 -89.5q-35.5 -43.5 -64.5 -79.5l-45 -228q-5 -23 -14.5 -31q-9.5 -8 -32.5 -8h-40q-23 0 -31.5 8.5q-8.5 8.5 -3.5 34.5z" />
<glyph unicode="&#90;" horiz-adv-x="494" d="M-6 0q-17 0 -22 11.5q-5 11.5 -2 32.5l8 46q3 15 9.5 26q6.5 11 17.5 24l377 401h-268q-18 0 -28.5 9q-10.5 9 -5.5 38l5 27q5 24 12.5 33q7.5 9 31.5 9h389q17 0 22.5 -12.5q5.5 -12.5 1.5 -32.5l-8 -46q-3 -14 -9.5 -25q-6.5 -11 -18.5 -25l-375 -399h286q18 0 30.5 -8q12.5 -8 7.5 -37l-5 -29q-2 -13 -5 -21q-3 -8 -8.5 -13q-5.5 -5 -14 -7q-8.5 -2 -22.5 -2z" />
<glyph unicode="&#91;" horiz-adv-x="343" d="M253 -75q18 0 30 -6.5q12 -6.5 7 -33.5l-5 -26q-5 -23 -13 -31q-8 -8 -35 -8h-148q-16 0 -24 3.5q-8 3.5 -11 10.5q-3 7 -2.5 16q0.5 9 2.5 21l162 817q4 20 12.5 31.5q8.5 11.5 32.5 11.5h149q18 0 30 -6.5q12 -6.5 7 -33.5l-5 -26q-5 -23 -13 -31q-8 -8 -35 -8h-76l-139 -701z" />
<glyph unicode="&#92;" horiz-adv-x="554" d="M147 617q-11 22 -5 31q6 9 21 9h47q18 0 25.5 -5q7.5 -5 15.5 -21l312 -692q11 -22 5 -31q-6 -9 -21 -9h-47q-18 0 -25.5 5q-7.5 5 -15.5 21z" />
<glyph unicode="&#93;" horiz-adv-x="343" d="M199 626q-27 0 -34 9q-7 9 -4 29l5 27q4 19 11 29.5q7 10.5 31 10.5h147q32 0 38.5 -12q6.5 -12 1.5 -36l-163 -821q-5 -20 -13.5 -31q-8.5 -11 -34.5 -11h-141q-26 0 -34.5 9q-8.5 9 -5.5 29l5 27q5 21 11 30.5q6 9.5 31 9.5h82l141 701z" />
<glyph unicode="&#94;" horiz-adv-x="406" d="M491 477q11 -22 3.5 -35.5q-7.5 -13.5 -33.5 -13.5h-42q-14 0 -20.5 6q-6.5 6 -13.5 20l-53 109q-4 12 -7.5 24.5q-3.5 12.5 -5.5 26.5q-8 -14 -16 -27.5q-8 -13.5 -16 -23.5l-90 -109q-12 -14 -21 -20q-9 -6 -23 -6h-37q-28 0 -29.5 13.5q-1.5 13.5 17.5 35.5l198 229q20 23 40 21.5q20 -1.5 31 -21.5z" />
<glyph unicode="&#95;" horiz-adv-x="401" d="M11 -226q-13 0 -19.5 2.5q-6.5 2.5 -9 7.5q-2.5 5 -2 13.5q0.5 8.5 2.5 20.5l3 18q2 13 4.5 21.5q2.5 8.5 7 13.5q4.5 5 12 7.5q7.5 2.5 20.5 2.5h363q26 0 29.5 -9.5q3.5 -9.5 -1.5 -35.5l-3 -18q-4 -24 -11 -34q-7 -10 -33 -10z" />
<glyph unicode="&#96;" horiz-adv-x="329" d="M360 551q11 -35 -27 -35h-27q-17 0 -23.5 5.5q-6.5 5.5 -12.5 13.5l-89 115q-16 20 -6.5 35q9.5 15 30.5 15h78q14 0 23.5 -5q9.5 -5 14.5 -19z" />
<glyph unicode="&#97;" horiz-adv-x="526" d="M181 176q0 -44 16.5 -61q16.5 -17 39.5 -17q19 0 41 10q22 10 42.5 28q20.5 18 37 42q16.5 24 24.5 52l35 155q-32 9 -58 9q-43 0 -76.5 -20.5q-33.5 -20.5 -56 -52q-22.5 -31.5 -34 -70q-11.5 -38.5 -11.5 -75.5zt0 0zM368 82q-12 -17 -30.5 -34q-18.5 -17 -41 -30.5q-22.5 -13.5 -48 -22q-25.5 -8.5 -50.5 -8.5q-69 0 -102 41.5q-33 41.5 -33 110.5q0 69 19 133q19 64 58 113q39 49 99 79.5q60 30.5 143 32.5q27 0 55.5 -4q28.5 -4 57.5 -13q27 -9 39 -23q12 -14 7 -39l-60 -273q-5 -26 -1 -52q4 -26 13 -48q5 -11 0 -19q-5 -8 -13 -12l-48 -23q-24 -11 -36 7q-12 19 -17.5 41.5q-5.5 22.5 -7.5 42.5z" />
<glyph unicode="&#98;" horiz-adv-x="538" d="M185 107q14 -3 29 -5.5q15 -2.5 29 -2.5q40 0 74.5 14q34.5 14 60 39.5q25.5 25.5 40 62q14.5 36.5 14.5 82.5q0 17 -2.5 33q-2.5 16 -10 28q-7.5 12 -20.5 19.5q-13 7.5 -34 7.5q-26 0 -49.5 -10q-23.5 -10 -43.5 -26.5q-20 -16.5 -35 -38.5q-15 -22 -23 -45zM227 -13q-23 0 -52 3.5q-29 3.5 -54.5 12q-25.5 8.5 -43 21.5q-17.5 13 -17.5 32q0 5 0.5 9.5q0.5 4.5 1.5 9.5l116 606q6 27 14.5 32q8.5 5 32.5 5h34q21 0 30.5 -7q9.5 -7 4.5 -30l-47 -246q38 36 77 49q39 13 81 13q40 0 68 -15.5q28 -15.5 45 -41.5q17 -26 25 -59q8 -33 8 -68q0 -76 -25 -136.5q-25 -60.5 -69 -102.5q-44 -42 -103 -64.5t-127 -22.5z" />
<glyph unicode="&#99;" horiz-adv-x="449" d="M64 191q0 64 20 120q20 56 56.5 97q36.5 41 89 65q52.5 24 117.5 24q27 0 54.5 -5q27.5 -5 50 -16q22.5 -11 36.5 -27.5q14 -16.5 14 -39.5q0 -26 -22 -48q-10 -10 -25 -3q-32 17 -60 24.5q-28 7.5 -60 7.5q-35 0 -63.5 -15q-28.5 -15 -48 -41q-19.5 -26 -30 -60q-10.5 -34 -10.5 -71q0 -54 25 -81q25 -27 67 -27q32 0 62.5 9.5q30.5 9.5 58.5 23.5q23 12 33 -11l18 -40q7 -14 4.5 -21.5q-2.5 -7.5 -13.5 -14.5q-41 -26 -84.5 -40q-43.5 -14 -93.5 -14q-54 0 -91 15.5q-37 15.5 -60.5 42.5q-23.5 27 -34 64.5t-10.5 81.5z" />
<glyph unicode="&#100;" horiz-adv-x="568" d="M507 130q-4 -16 -4 -33q0 -14 3 -26.5q3 -12.5 8 -25.5q5 -11 0 -19q-5 -8 -13 -12l-48 -23q-24 -11 -36 7q-22 33 -28 66q-31 -36 -71 -56.5q-40 -20.5 -90 -20.5q-35 0 -64.5 11q-29.5 11 -51 33.5q-21.5 22.5 -34 56.5q-12.5 34 -12.5 81q0 69 23.5 129q23.5 60 63 104.5q39.5 44.5 91 69.5q51.5 25 108.5 25q23 0 51 -4q28 -4 54 -13l39 201q6 27 14.5 32q8.5 5 32.5 5h34q21 0 30.5 -7q9.5 -7 4.5 -30zM359 393q-32 0 -63.5 -14.5q-31.5 -14.5 -56 -41.5q-24.5 -27 -40 -65.5q-15.5 -38.5 -15.5 -85.5q0 -18 3.5 -33.5q3.5 -15.5 12.5 -27.5q9 -12 25.5 -19q16.5 -7 43.5 -7q39 2 77.5 31.5q38.5 29.5 59.5 83.5l31 164q-38 15 -78 15z" />
<glyph unicode="&#101;" horiz-adv-x="475" d="M460 254q-24 -16 -53 -27q-29 -11 -60 -17.5q-31 -6.5 -61 -9.5q-30 -3 -56 -3q-13 0 -24 0q-11 0 -20 1q-1 -5 -1 -9.5q0 -4.5 0 -8.5q0 -41 21 -63.5q21 -22.5 72 -22.5q37 0 66 7q29 7 64 23q10 4 14.5 1.5q4.5 -2.5 9.5 -10.5l24 -47q7 -12 2.5 -17.5q-4.5 -5.5 -8.5 -7.5q-29 -18 -53.5 -29q-24.5 -11 -47 -17q-22.5 -6 -44 -8q-21.5 -2 -44.5 -2q-102 0 -148.5 45q-46.5 45 -46.5 136q0 68 23.5 128q23.5 60 63 104.5q39.5 44.5 92.5 70.5q53 26 113 26q47 0 78.5 -11.5q31.5 -11.5 51 -29.5q19.5 -18 27.5 -41q8 -23 8 -45q0 -35 -17.5 -65.5q-17.5 -30.5 -45.5 -50.5zt0 0zM213 286q29 0 62.5 3q33.5 3 61.5 11.5q28 8.5 46.5 22q18.5 13.5 18.5 34.5q0 16 -13.5 29.5q-13.5 13.5 -45.5 13.5q-24 0 -45 -9.5q-21 -9.5 -38 -25.5q-17 -16 -29 -36.5t-18 -42.5z" />
<glyph unicode="&#102;" horiz-adv-x="309" d="M162 484q22 124 76.5 180.5q54.5 56.5 148.5 56.5q48 0 70.5 -19q22.5 -19 22.5 -49q0 -16 -6 -34q-6 -15 -24 -12q-13 3 -26 5q-13 2 -25 2q-56 0 -84 -35q-28 -35 -36 -95l98 0q24 0 27 -9q3 -9 -2 -33l-4 -22q-5 -23 -11.5 -32q-6.5 -9 -32.5 -9h-95l-88 -464q-8 -40 -19.5 -72.5q-11.5 -32.5 -30 -55.5q-18.5 -23 -47.5 -35.5q-29 -12.5 -72 -12.5q-23 0 -46.5 3q-23.5 3 -58.5 17q-14 5 -15.5 13.5q-1.5 8.5 3.5 22.5l18 47q5 16 13.5 16q8.5 0 19.5 -2q22 -5 36 -5q20 0 34 5q14 5 25.5 20.5q11.5 15.5 20.5 44.5q9 29 18 78l70 380l-54 9q-11 2 -15.5 7.5q-4.5 5.5 -2.5 19.5l7 35q2 11 8.5 16q6.5 5 20.5 8z" />
<glyph unicode="&#103;" horiz-adv-x="530" d="M538 417l-102 -461q-12 -65 -33.5 -106.5q-21.5 -41.5 -51 -66.5q-29.5 -25 -65 -34.5q-35.5 -9.5 -74.5 -9.5q-77 0 -146 32q-5 2 -11.5 9q-6.5 7 1.5 26l22 50q6 13 15.5 13q9.5 0 23.5 -5q21 -7 44 -12q23 -5 46 -5q19 0 37 4.5q18 4.5 33.5 18.5q15.5 14 28 39q12.5 25 21.5 66l16 75q-31 -30 -69.5 -46.5q-38.5 -16.5 -75.5 -16.5q-66 0 -101.5 41q-35.5 41 -35.5 126q0 73 24.5 136q24.5 63 67.5 109q43 46 101 72q58 26 126 26q23 0 48.5 -3q25.5 -3 50.5 -9q38 -9 50.5 -26q12.5 -17 8.5 -42zt0 0zM366 398q-43 0 -77.5 -21q-34.5 -21 -58.5 -54q-24 -33 -37 -74q-13 -41 -13 -81q0 -44 16.5 -57q16.5 -13 38.5 -13q18 0 39 9q21 9 41 25q20 16 37.5 38q17.5 22 26.5 48l38 176q-12 2 -26 3t-25 1z" />
<glyph unicode="&#104;" horiz-adv-x="567" d="M200 37q-3 -14 -6 -21.5q-3 -7.5 -8 -11q-5 -3.5 -12.5 -4q-7.5 -0.5 -19.5 -0.5h-36q-21 0 -30.5 7q-9.5 7 -4.5 30l124 644q6 27 14.5 32q8.5 5 32.5 5h34q21 0 30.5 -7q9.5 -7 4.5 -30l-50 -262q32 34 73 55.5q41 21.5 86 21.5q63 0 103.5 -33q40.5 -33 40.5 -110q0 -19 -3.5 -42q-3.5 -23 -8.5 -43l-30 -137q-4 -16 -4 -33q0 -14 3 -26.5q3 -12.5 8 -25.5q5 -11 0 -19q-5 -8 -13 -12l-48 -23q-24 -11 -36 7q-31 47 -31 98q0 12 2 24.5q2 12.5 5 26.5l29 124q4 15 6.5 32q2.5 17 2.5 32q0 22 -10.5 37q-10.5 15 -41.5 15q-49 0 -94 -35q-45 -35 -70 -93z" />
<glyph unicode="&#105;" horiz-adv-x="257" d="M231 549q-27 0 -46.5 16q-19.5 16 -19.5 48q0 20 7.5 35.5q7.5 15.5 20 26.5q12.5 11 28 16.5q15.5 5.5 31.5 5.5q25 0 44.5 -16q19.5 -16 19.5 -48q0 -20 -8 -35.5q-8 -15.5 -20.5 -26q-12.5 -10.5 -27.5 -16.5q-15 -6 -29 -6zt0 0zM187 37q-3 -14 -6 -21.5q-3 -7.5 -8 -11q-5 -3.5 -12.5 -4q-7.5 -0.5 -19.5 -0.5h-36q-21 0 -30.5 7q-9.5 7 -4.5 30l82 410q6 27 14.5 32q8.5 5 32.5 5h34q21 0 30.5 -7q9.5 -7 4.5 -30z" />
<glyph unicode="&#106;" horiz-adv-x="258" d="M3 -263q-37 2 -59 19.5q-22 17.5 -22 49.5q0 11 3 23q3 14 15 14.5q12 0.5 23 0.5q23 0 38.5 6.5q15.5 6.5 25.5 17.5q10 11 15.5 26q5.5 15 9.5 32l105 521q6 27 14.5 32q8.5 5 32.5 5h34q21 0 30.5 -7q9.5 -7 4.5 -30l-103 -513q-9 -42 -20.5 -78.5q-11.5 -36.5 -30.5 -62.5q-19 -26 -47 -41q-28 -15 -69 -15zt0 0zM236 549q-27 0 -46.5 16q-19.5 16 -19.5 48q0 20 7.5 35.5q7.5 15.5 20 26.5q12.5 11 28 16.5q15.5 5.5 31.5 5.5q25 0 44.5 -16q19.5 -16 19.5 -48q0 -20 -8 -35.5q-8 -15.5 -20.5 -26q-12.5 -10.5 -27.5 -16.5t-29 -6z" />
<glyph unicode="&#107;" horiz-adv-x="467" d="M378 385q-21 0 -42.5 -9q-21.5 -9 -42.5 -24.5q-21 -15.5 -39.5 -36.5q-18.5 -21 -33.5 -45l-6 -28q30 4 63.5 13.5q33.5 9.5 62 24.5q28.5 15 47.5 35q19 20 19 43q0 10 -7 18.5q-7 8.5 -21 8.5zt0 0zM176 37q-3 -14 -6 -21.5q-3 -7.5 -8 -11q-5 -3.5 -12.5 -4q-7.5 -0.5 -19.5 -0.5h-36q-21 0 -30.5 7q-9.5 7 -4.5 30l124 644q6 27 14.5 32q8.5 5 32.5 5h34q21 0 30.5 -7q9.5 -7 4.5 -30l-54 -281q35 44 74.5 68q39.5 24 87.5 24q22 0 42.5 -7q20.5 -7 36.5 -21.5q16 -14.5 25 -36q9 -21.5 9 -50.5q0 -31 -11.5 -57.5q-11.5 -26.5 -31.5 -48q-20 -21.5 -46.5 -39q-26.5 -17.5 -57.5 -30.5l77 -149q6 -11 9 -20.5q3 -9.5 2 -16.5q-1 -7 -7.5 -11.5q-6.5 -4.5 -21.5 -4.5h-52q-19 0 -26 4.5q-7 4.5 -16 21.5l-72 143q-17 -4 -34 -6.5q-17 -2.5 -33 -4.5z" />
<glyph unicode="&#108;" horiz-adv-x="283" d="M291 38q0 -25 -20 -34q-18 -8 -40 -12.5q-22 -4.5 -44 -4.5q-50 0 -77 18q-27 18 -38 47q-11 29 -9.5 65.5q1.5 36.5 8.5 73.5l96 490q6 27 14.5 32q8.5 5 32.5 5h34q21 0 30.5 -7q9.5 -7 4.5 -30l-97 -502q-2 -16 -4.5 -31.5q-2.5 -15.5 0 -27.5q2.5 -12 12 -19q9.5 -7 30.5 -7q10 0 20 0.5q10 0.5 19 1.5q10 0 19.5 -1q9.5 -1 9.5 -18z" />
<glyph unicode="&#109;" horiz-adv-x="774" d="M233 409q32 42 73 64.5q41 22.5 79 22.5q37 0 66 -21q29 -21 36 -67q13 16 29.5 32q16.5 16 37.5 28.5q21 12.5 46 20q25 7.5 55 7.5q33 0 55 -11.5q22 -11.5 34.5 -30q12.5 -18.5 17.5 -43q5 -24.5 5 -50.5q0 -25 -3 -49q-3 -24 -8 -44l-33 -138q-4 -16 -4 -33q0 -14 3 -26.5q3 -12.5 8 -25.5q5 -11 0 -19q-5 -8 -13 -12l-48 -23q-24 -11 -36 7q-31 47 -31 98q0 12 2 24.5q2 12.5 5 26.5l32 124q2 12 6 30.5q4 18.5 4 36.5q0 20 -7 35q-7 15 -30 15q-40 0 -75.5 -35q-35.5 -35 -53.5 -104l-43 -212q-3 -14 -6 -21.5q-3 -7.5 -8 -11q-5 -3.5 -12.5 -4q-7.5 -0.5 -19.5 -0.5h-32q-21 0 -30.5 7q-9.5 7 -4.5 30l46 234q2 12 6 30.5q4 18.5 4 36.5q0 20 -7.5 35q-7.5 15 -30.5 15q-40 0 -76 -35q-36 -35 -54 -104l-43 -212q-3 -14 -6 -21.5q-3 -7.5 -8 -11q-5 -3.5 -12.5 -4q-7.5 -0.5 -19.5 -0.5h-34q-21 0 -30.5 7q-9.5 7 -4.5 30l63 324q3 14 4 27.5q1 13.5 1 25.5q0 22 -4 39q-2 6 -1 10.5q1 4.5 7 8.5q11 7 25 10.5q14 3.5 27 3.5q32 0 42.5 -17q10.5 -17 10.5 -40q0 -5 0 -10t-1 -10z" />
<glyph unicode="&#110;" horiz-adv-x="559" d="M129 472q11 7 25 10.5q14 3.5 27 3.5q32 0 42.5 -17q10.5 -17 10.5 -40q0 -5 0 -10q0 -5 -1 -10q31 40 76 63.5q45 23.5 97 23.5q31 0 58 -8q27 -8 46.5 -25q19.5 -17 30.5 -44q11 -27 11 -66q0 -19 -3.5 -42q-3.5 -23 -8.5 -43l-30 -138q-4 -16 -4 -33q0 -14 3 -26.5q3 -12.5 8 -25.5q5 -11 0 -19q-5 -8 -13 -12l-48 -23q-24 -11 -36 7q-31 47 -31 98q0 12 2 24.5q2 12.5 5 26.5l29 125q4 15 6.5 32q2.5 17 2.5 32q0 22 -10.5 37q-10.5 15 -41.5 15q-26 0 -50.5 -10q-24.5 -10 -46 -28.5q-21.5 -18.5 -39 -44q-17.5 -25.5 -29.5 -56.5l-43 -212q-3 -14 -6 -21.5q-3 -7.5 -8 -11q-5 -3.5 -12.5 -4q-7.5 -0.5 -19.5 -0.5h-34q-21 0 -30.5 7q-9.5 7 -4.5 30l63 324q3 14 4 27.5q1 13.5 1 25.5q0 22 -4 39q-2 6 -1 10.5t7 8.5z" />
<glyph unicode="&#111;" horiz-adv-x="553" d="M272 98q39 0 69.5 17.5q30.5 17.5 51.5 45q21 27.5 32.5 61.5q11.5 34 11.5 68q0 39 -20 67.5q-20 28.5 -67 28.5q-39 0 -69.5 -17.5q-30.5 -17.5 -51.5 -45q-21 -27.5 -32.5 -61.5q-11.5 -34 -11.5 -68q0 -39 19.5 -67q19.5 -28 67.5 -29zt0 0zM357 496q57 -1 95.5 -18q38.5 -17 61.5 -44.5q23 -27.5 32.5 -63q9.5 -35.5 9.5 -74.5q0 -65 -20.5 -120.5q-20.5 -55.5 -58 -97q-37.5 -41.5 -90 -66q-52.5 -24.5 -116.5 -25.5q-59 0 -98.5 16.5q-39.5 16.5 -63 44q-23.5 27.5 -33.5 64q-10 36.5 -10 76.5q0 65 20.5 121q20.5 56 59 97.5q38.5 41.5 92 65.5t119.5 24z" />
<glyph unicode="&#112;" horiz-adv-x="548" d="M192 106q14 -3 30.5 -5.5q16.5 -2.5 30.5 -2.5q41 0 76.5 14q35.5 14 62 39.5q26.5 25.5 41.5 62.5q15 37 15 83q0 17 -3 33q-3 16 -10.5 28q-7.5 12 -21 19.5q-13.5 7.5 -34.5 7.5q-26 0 -50.5 -10q-24.5 -10 -45 -26.5q-20.5 -16.5 -36.5 -38q-16 -21.5 -24 -44.5zM264 -13q-22 0 -47 4q-25 4 -43 11l-43 -223q-3 -14 -6 -21.5q-3 -7.5 -8 -11q-5 -3.5 -12.5 -4q-7.5 -0.5 -19.5 -0.5h-36q-21 0 -30.5 7q-9.5 7 -4.5 30l112 582q5 23 5.5 46.5q0.5 23.5 -4.5 45.5q-2 6 -1 10.5q1 4.5 7 8.5q11 7 25 10.5q14 3.5 27 3.5q17 0 28 -6.5q11 -6.5 17 -17q6 -10.5 7.5 -24.5q1.5 -14 -0.5 -29q33 40 79 64q46 24 94 24q81 0 121 -53q40 -53 40 -143q0 -75 -26 -133q-26 -58 -69 -98.5q-43 -40.5 -98.5 -61.5t-113.5 -21z" />
<glyph unicode="&#113;" horiz-adv-x="535" d="M374 398q-42 0 -76.5 -22q-34.5 -22 -59 -55.5q-24.5 -33.5 -37.5 -74.5q-13 -41 -13 -78q0 -23 4.5 -36.5q4.5 -13.5 12.5 -21q8 -7.5 18.5 -10q10.5 -2.5 22.5 -2.5q21 0 44.5 10q23.5 10 46 27q22.5 17 40 41q17.5 24 26.5 51l32 166q-13 3 -31.5 4q-18.5 1 -29.5 1zt0 0zM510 480q27 -9 39 -23q12 -14 7 -39l-122 -639q-3 -14 -6 -21.5q-3 -7.5 -8 -11q-5 -3.5 -12.5 -4q-7.5 -0.5 -19.5 -0.5h-36q-21 0 -30.5 7q-9.5 7 -4.5 30l53 276q-33 -32 -79 -50q-46 -18 -85 -18q-66 0 -103 41q-37 41 -37 126q0 73 25 136q25 63 68.5 109q43.5 46 102 72q58.5 26 126.5 26q27 0 60.5 -4t61.5 -13z" />
<glyph unicode="&#114;" horiz-adv-x="351" d="M181 486q20 -1 30.5 -9.5q10.5 -8.5 15 -20.5q4.5 -12 4.5 -27q0 -15 -1 -29q23 41 57.5 66q34.5 25 70.5 25q28 0 52 -13.5q24 -13.5 24 -42.5q0 -12 -7.5 -27q-7.5 -15 -21.5 -29q-8 -8 -15 -12q-7 -4 -20 2q-18 6 -34 6q-40 0 -73.5 -31.5q-33.5 -31.5 -45.5 -94.5l-43 -212q-3 -14 -6 -21.5q-3 -7.5 -8 -11q-5 -3.5 -12.5 -4q-7.5 -0.5 -19.5 -0.5h-34q-21 0 -30.5 7q-9.5 7 -4.5 30l63 324q3 14 4 27.5q1 13.5 1 25.5q0 22 -4 39q-2 6 -1 10.5q1 4.5 7 8.5q11 7 25 10.5t27 3.5z" />
<glyph unicode="&#115;" horiz-adv-x="407" d="M417 367q-9 -7 -14.5 -6.5q-5.5 0.5 -15.5 5.5q-22 11 -54.5 22q-32.5 11 -65.5 11q-26 0 -44 -10q-18 -10 -18 -31q0 -15 15 -27.5q15 -12.5 37 -25q22 -12.5 48.5 -26.5q26.5 -14 48.5 -32.5q22 -18.5 37 -44q15 -25.5 15 -59.5q0 -77 -55 -116.5q-55 -39.5 -152 -39.5q-25 0 -53.5 6q-28.5 6 -52.5 18q-24 12 -40 30q-16 18 -16 42q0 12 3 23.5q3 11.5 13 22.5q7 7 13 6q6 -1 13 -4q32 -15 65.5 -25q33.5 -10 69.5 -10q31 0 52.5 9.5q21.5 9.5 21.5 31.5q0 15 -14.5 28q-14.5 13 -37 25.5q-22.5 12.5 -48 27q-25.5 14.5 -48 33q-22.5 18.5 -37 43q-14.5 24.5 -14.5 57.5q0 30 13 56.5q13 26.5 38.5 46.5q25.5 20 63 31.5q37.5 11.5 86.5 11.5q25 0 51.5 -5.5q26.5 -5.5 48.5 -16.5q22 -11 36 -27q14 -16 14 -37q0 -14 -6 -24.5t-17 -19.5z" />
<glyph unicode="&#116;" horiz-adv-x="332" d="M314 9q-9 -4 -23 -8q-14 -4 -29.5 -7q-15.5 -3 -30.5 -5q-15 -2 -26 -2q-51 0 -77 16.5q-26 16.5 -35.5 43.5q-9.5 27 -7 61.5q2.5 34.5 10.5 71.5l40 199l-45 9q-11 2 -15.5 10q-4.5 8 -0.5 28l5 24q2 11 8.5 16q6.5 5 20.5 8l49 9l31 106q8 26 19.5 31.5q11.5 5.5 27.5 5.5h24q21 0 30.5 -7q9.5 -7 4.5 -30l-21 -105h94q24 0 27 -9q3 -9 -2 -33l-4 -22q-5 -23 -11.5 -32q-6.5 -9 -32.5 -9h-93l-39 -200q-2 -12 -5 -26.5q-3 -14.5 -2 -27q1 -12.5 8 -21q7 -8.5 24 -8.5q7 0 17.5 1q10.5 1 21 2q10.5 1 19 2.5q8.5 1.5 13.5 3.5q26 6 26 -18l-1 -44q0 -25 -20 -34z" />
<glyph unicode="&#117;" horiz-adv-x="534" d="M478 130q-5 -26 -3 -46q2 -20 10 -39q8 -21 -11 -30l-50 -24q-24 -11 -36 7q-14 20 -20 40q-6 20 -8 40q-43 -51 -84 -71q-41 -20 -90 -20q-55 0 -80.5 25.5q-25.5 25.5 -32.5 63.5q-7 38 -1 81.5q6 43.5 14 79.5l45 210q6 27 14.5 32q8.5 5 32.5 5h34q21 0 30.5 -7q9.5 -7 4.5 -30l-52 -251q-2 -13 -4.5 -30q-2.5 -17 -1 -32q1.5 -15 10 -25.5q8.5 -10.5 27.5 -10.5q24 0 48.5 12q24.5 12 46.5 35q22 23 40 55q18 32 29 73l39 174q6 27 14.5 32q8.5 5 32.5 5h32q21 0 30.5 -7q9.5 -7 4.5 -30z" />
<glyph unicode="&#118;" horiz-adv-x="458" d="M289 32q-10 -17 -19 -24.5q-9 -7.5 -23 -7.5h-64q-17 0 -25 10q-8 10 -12 28l-74 419q-2 17 7.5 22q9.5 5 26.5 5h55q17 0 25 -8.5q8 -8.5 10 -25.5l43 -327l168 338q9 16 19.5 19.5q10.5 3.5 27.5 3.5h47q20 0 26 -9q6 -9 -4 -29z" />
<glyph unicode="&#119;" horiz-adv-x="631" d="M593 461q9 16 19.5 19.5q10.5 3.5 27.5 3.5h46q20 0 26 -9q6 -9 -4 -29l-195 -414q-15 -32 -42 -32h-59q-34 0 -37 38l-14 208l4 99l-30 -99l-92 -214q-14 -32 -42 -32h-56q-18 0 -26.5 10q-8.5 10 -10.5 28l-41 419q-2 17 7.5 22q9.5 5 26.5 5h52q17 0 25 -8.5q8 -8.5 10 -25.5l12 -320l128 325q10 20 20.5 24.5q10.5 4.5 21.5 4.5h47q15 0 24.5 -7.5q9.5 -7.5 11.5 -30.5l5 -316z" />
<glyph unicode="&#120;" horiz-adv-x="446" d="M432 39q8 -19 2 -29q-6 -10 -24 -10h-62q-19 1 -27 9q-8 8 -13 20l-61 123l-110 -129q-12 -14 -20.5 -18.5q-8.5 -4.5 -21.5 -4.5h-72q-17 -1 -20.5 13q-3.5 14 10.5 31l185 208l-95 193q-8 19 -2 29q6 10 24 10h62q19 -1 26.5 -9q7.5 -8 13.5 -20l57 -116l101 122q12 14 20.5 18.5q8.5 4.5 21.5 4.5h69q17 1 20.5 -11.5q3.5 -12.5 -7.5 -27.5l-177 -204z" />
<glyph unicode="&#121;" horiz-adv-x="460" d="M416 461q9 16 19.5 19.5q10.5 3.5 27.5 3.5h43q20 0 26 -9q6 -9 -4 -29l-263 -518q-18 -35 -39 -69q-21 -34 -46.5 -60.5q-25.5 -26.5 -56.5 -43q-31 -16.5 -69 -16.5q-43 0 -60 19q-17 19 -17 45q0 23 11 45q5 8 17 5q8 -3 15 -4q7 -1 14 -1q33 0 62.5 20.5q29.5 20.5 56.5 69.5l31 62h-16q-9 0 -15.5 1.5q-6.5 1.5 -11.5 6.5q-5 5 -8 15.5q-3 10.5 -6 27.5l-47 393q-4 26 5.5 33q9.5 7 26.5 7h55q17 0 24.5 -8.5q7.5 -8.5 9.5 -25.5l34 -342l3 0z" />
<glyph unicode="&#122;" horiz-adv-x="419" d="M162 110h199q31 0 34.5 -12.5q3.5 -12.5 -1.5 -38.5l-4 -20q-2 -10 -4 -17.5q-2 -7.5 -6.5 -12q-4.5 -4.5 -12 -7q-7.5 -2.5 -20.5 -2.5h-320q-23 0 -29 10q-6 10 -1 32l7 35q3 14 8 23q5 9 16 20l265 255h-180q-31 0 -34.5 11.5q-3.5 11.5 1.5 39.5l4 19q4 20 10.5 29.5q6.5 9.5 32.5 9.5h302q23 0 29 -9q6 -9 1 -33l-7 -35q-3 -12 -10 -23q-7 -11 -15 -20z" />
<glyph unicode="&#123;" horiz-adv-x="346" d="M74 298q2 14 8 20.5q6 6.5 23 10.5q46 10 65 39q19 29 25 69q2 13 4.5 30q2.5 17 5 34.5q2.5 17.5 5 34.5q2.5 17 4.5 30q8 48 28 82.5q20 34.5 49 56q29 21.5 65.5 28.5q36.5 7 76.5 0q17 -3 19 -9.5q2 -6.5 0 -20.5l-8 -52q-3 -15 -9.5 -19.5q-6.5 -4.5 -23.5 -4.5q-22 0 -36.5 -5q-14.5 -5 -24.5 -17q-10 -12 -16 -31.5q-6 -19.5 -11 -47.5q-4 -24 -7.5 -57.5q-3.5 -33.5 -8.5 -57.5q-8 -48 -35 -83q-27 -35 -71 -51l-1 -4q32 -13 47.5 -41q15.5 -28 15.5 -66q0 -18 -5 -40.5q-5 -22.5 -10.5 -47q-5.5 -24.5 -10.5 -48.5q-5 -24 -5 -45q0 -34 13 -48q13 -14 45 -14q18 0 22.5 -4.5q4.5 -4.5 2.5 -19.5l-9 -52q-2 -14 -6.5 -20.5q-4.5 -6.5 -22.5 -9.5q-75 -13 -121 21q-46 34 -46 111q0 20 5 46.5q5 26.5 11.5 53.5q6.5 27 11.5 51.5q5 24.5 5 41.5q0 29 -12 50q-12 21 -44 29q-16 4 -19.5 10.5q-3.5 6.5 -1.5 20.5z" />
<glyph unicode="&#124;" horiz-adv-x="261" d="M154 -145q-7 -26 -18.5 -32q-11.5 -6 -34.5 -6h-7q-26 0 -39 9q-13 9 -5 39l160 805q6 24 18 30.5q12 6.5 36 6.5h7q27 0 38.5 -8.5q11.5 -8.5 4.5 -38.5z" />
<glyph unicode="&#125;" horiz-adv-x="347" d="M380 252q-2 -14 -8 -20.5q-6 -6.5 -23 -10.5q-46 -10 -65 -39q-19 -29 -25 -69q-2 -13 -4.5 -30q-2.5 -17 -5 -34.5q-2.5 -17.5 -5 -34.5q-2.5 -17 -4.5 -30q-8 -48 -28 -82.5q-20 -34.5 -49 -56q-29 -21.5 -65.5 -29q-36.5 -7.5 -76.5 0.5q-17 3 -19 9.5q-2 6.5 0 20.5l8 52q3 15 9.5 19.5q6.5 4.5 23.5 4.5q22 0 36.5 5q14.5 5 24.5 17q10 12 16 31.5q6 19.5 11 47.5q4 24 7.5 57.5q3.5 33.5 8.5 57.5q8 48 35 83q27 35 71 51l1 4q-32 13 -47.5 41q-15.5 28 -15.5 66q0 18 5 40.5q5 22.5 10.5 47q5.5 24.5 10.5 48.5q5 24 5 45q0 34 -13 48q-13 14 -45 14q-18 0 -22.5 4.5q-4.5 4.5 -2.5 19.5l9 52q2 14 6.5 20.5q4.5 6.5 22.5 9.5q75 13 121 -21q46 -34 46 -111q0 -20 -5 -46.5q-5 -26.5 -11.5 -53.5q-6.5 -27 -11.5 -52q-5 -25 -5 -41q0 -29 12 -50q12 -21 44 -29q16 -4 19.5 -10.5q3.5 -6.5 1.5 -20.5z" />
<glyph unicode="&#126;" horiz-adv-x="625" d="M587 301q12 -14 12 -22q0 -8 -11 -22q-33 -42 -73.5 -62.5q-40.5 -20.5 -82.5 -20.5q-27 0 -51.5 8.5q-24.5 8.5 -47.5 19q-23 10.5 -45.5 19q-22.5 8.5 -47.5 8.5q-26 0 -46.5 -12q-20.5 -12 -37.5 -25q-16 -12 -23 -11.5q-7 0.5 -18 11.5l-30 33q-11 12 -8.5 22q2.5 10 13.5 23q14 16 33 30.5q19 14.5 40 24.5q21 10 43 16q22 6 41 6q26 0 50.5 -8.5q24.5 -8.5 48 -19q23.5 -10.5 46.5 -19q23 -8.5 46 -8.5q22 0 40 8.5q18 8.5 39 25.5q15 13 24 14.5q9 1.5 20 -10.5z" />
<glyph unicode="&#162;" horiz-adv-x="595" d="M561 52q-58 -40 -130 -54l-11 -70q-5 -27 -15 -32.5q-10 -5.5 -34 -5.5h-26q-25 0 -34 5.5q-9 5.5 -4 32.5l11 64q-74 9 -112.5 58q-38.5 49 -38.5 130q0 57 15.5 105.5q15.5 48.5 45.5 86.5q30 38 73 62.5q43 24.5 99 33.5l9 50q5 27 15 32.5q10 5.5 36 5.5h26q23 0 32 -5.5q9 -5.5 4 -32.5l-10 -50q45 -8 70 -29q25 -21 25 -47q0 -21 -14 -43q-10 -14 -24 -9q-20 9 -42.5 16q-22.5 7 -45.5 10l-46 -269q23 5 45 13q22 8 41 17q11 5 18 3.5q7 -1.5 12 -13.5l16 -39q7 -16 -6 -26zt0 0zM288 197q0 -50 17.5 -72q17.5 -22 43.5 -29l47 264q-56 -17 -81.5 -63t-26.5 -100z" />
<glyph unicode="&#164;" horiz-adv-x="616" d="M317 90l-9 -52q-5 -27 -15.5 -32.5q-10.5 -5.5 -34.5 -5.5h-36q-25 0 -33.5 5.5q-8.5 5.5 -3.5 32.5l9 52h-39q-23 0 -26 8.5q-3 8.5 1 28.5l3 19q4 21 10 29q6 8 28 8h39l7 43h-37q-23 0 -26 8.5q-3 8.5 1 28.5l3 19q4 21 10 29q6 8 28 8h37l46 264q5 27 15.5 32.5q10.5 5.5 35.5 5.5h161q55 0 92.5 -13.5q37.5 -13.5 60 -36q22.5 -22.5 32.5 -52.5q10 -30 10 -62q0 -50 -17.5 -92.5q-17.5 -42.5 -50.5 -73q-33 -30.5 -80.5 -48q-47.5 -17.5 -108.5 -17.5h-88l-8 -43h161q23 0 25.5 -9q2.5 -9 -0.5 -28l-3 -19q-4 -20 -10 -28.5q-6 -8.5 -28 -8.5zM423 319q68 0 98.5 33.5q30.5 33.5 30.5 84.5q0 36 -22.5 55q-22.5 19 -73.5 19h-66l-34 -192z" />
<glyph unicode="&#167;" horiz-adv-x="510" d="M246 62q33 0 56.5 11q23.5 11 37.5 28.5q14 17.5 20.5 39.5q6.5 22 6.5 44q0 37 -16.5 74q-16.5 37 -36.5 73.5q-20 36.5 -36.5 73.5q-16.5 37 -16.5 73q0 37 20 67.5q20 30.5 58 50.5q-54 -3 -89 -33.5q-35 -30.5 -35 -84.5q0 -37 16.5 -74.5q16.5 -37.5 36.5 -75q20 -37.5 36.5 -74.5q16.5 -37 16.5 -74q0 -34 -18 -68q-18 -34 -57 -51zt0 0zM474 205q0 -48 -20.5 -88.5q-20.5 -40.5 -58 -69q-37.5 -28.5 -90.5 -44.5q-53 -16 -119 -16q-20 0 -47.5 3.5q-27.5 3.5 -47.5 9.5q-13 4 -18.5 9q-5.5 5 -0.5 22l15 50q4 14 10.5 19.5q6.5 5.5 22.5 0.5q11 -3 27 -7q16 -4 29 -4q32 0 45.5 18.5q13.5 18.5 13.5 43.5q0 29 -18.5 62.5q-18.5 33.5 -40 71.5q-21.5 38 -40 80q-18.5 42 -18.5 89q0 49 20 89q20 40 57.5 68.5q37.5 28.5 91 44.5q53.5 16 120.5 16q20 0 47 -3.5q27 -3.5 47 -9.5q13 -4 17.5 -9q4.5 -5 -0.5 -22l-13 -50q-4 -14 -10.5 -19.5q-6.5 -5.5 -21.5 -0.5q-11 3 -27.5 7q-16.5 4 -29.5 4q-32 0 -46 -18.5q-14 -18.5 -14 -43.5q0 -29 18.5 -62.5q18.5 -33.5 40.5 -71.5q22 -38 40.5 -80.5t18.5 -88.5z" />
<glyph unicode="&#168;" horiz-adv-x="475" d="M200 606q0 35 22.5 57.5q22.5 22.5 57.5 22.5q32 0 48.5 -17q16.5 -17 16.5 -45q0 -34 -23 -56q-23 -22 -60 -22q-29 0 -45.5 16.5q-16.5 16.5 -16.5 43.5zt0 0zM401 607q0 35 23 57q23 22 59 22q29 0 46.5 -17q17.5 -17 17.5 -45q0 -34 -24.5 -56q-24.5 -22 -58.5 -22q-30 0 -46.5 16.5t-16.5 44.5z" />
<glyph unicode="&#169;" horiz-adv-x="781" d="M406 454q-48 0 -75 -31.5q-27 -31.5 -27 -88.5q0 -54 25 -85.5q25 -31.5 74 -31.5q34 0 78 22q21 14 38 -6l16 -20q8 -12 2 -20.5q-6 -8.5 -11 -13.5q-12 -11 -28.5 -19q-16.5 -8 -34 -14q-17.5 -6 -34 -9q-16.5 -3 -29.5 -3q-93 0 -139 53.5q-46 53.5 -46 146.5q0 46 14 84q14 38 39.5 64q25.5 26 60.5 40.5q35 14.5 78 14.5q23 0 46 -4.5q23 -4.5 41 -12.5q18 -8 29 -20q11 -12 11 -28q0 -9 -2.5 -16.5q-2.5 -7.5 -6.5 -12.5q-9 -10 -16 -11.5q-7 -1.5 -15 0.5q-30 13 -49.5 17.5q-19.5 4.5 -38.5 4.5zt0 0zM47 332q0 73 23 136q23 63 67.5 109.5q44.5 46.5 108.5 73.5q64 27 147 27q82 0 145.5 -27q63.5 -27 107 -73.5q43.5 -46.5 66.5 -109.5q23 -63 23 -136q0 -72 -22.5 -135q-22.5 -63 -66 -109.5q-43.5 -46.5 -107.5 -73.5q-64 -27 -146 -27q-83 0 -147 27q-64 27 -108.5 73.5q-44.5 46.5 -67.5 109.5q-23 63 -23 135zt0 0zM134 332q0 -57 17 -105q17 -48 50 -83.5q33 -35.5 81.5 -55.5q48.5 -20 110.5 -20q62 0 110 20q48 20 80.5 55.5q32.5 35.5 49.5 83.5q17 48 17 105q0 58 -17 106.5q-17 48.5 -49.5 84q-32.5 35.5 -80.5 55.5q-48 20 -110 20q-62 0 -110.5 -20q-48.5 -20 -81.5 -55.5q-33 -35.5 -50 -84t-17 -106.5z" />
<glyph unicode="&#171;" horiz-adv-x="519" d="M301 115q15 -19 -9 -40l-38 -33q-22 -19 -39 5l-134 176q-8 11 -6.5 24.5q1.5 13.5 12.5 24.5l170 177q21 21 38 4l32 -33q11 -11 10 -19.5q-1 -8.5 -14 -21.5l-127 -128zM504 125q15 -19 -9 -40l-38 -33q-22 -19 -39 5l-127 166q-8 11 -6.5 24.5q1.5 13.5 12.5 24.5l161 167q12 12 20.5 12.5q8.5 0.5 17.5 -8.5l32 -33q11 -10 10 -19q-1 -9 -14 -22l-117 -118z" />
<glyph unicode="&#172;" horiz-adv-x="621" d="M573 159q-4 -27 -15 -32.5q-11 -5.5 -35 -5.5h-30q-25 0 -33.5 5.5q-8.5 5.5 -3.5 32.5l15 84h-307q-26 0 -30 10q-4 10 0 34l4 23q4 25 11.5 35q7.5 10 33.5 10h388q26 0 29.5 -11.5q3.5 -11.5 -0.5 -33.5z" />
<glyph unicode="&#174;" horiz-adv-x="526" d="M51 506q0 43 14.5 81.5q14.5 38.5 42 66.5q27.5 28 66.5 44.5q39 16.5 88 16.5q51 0 90.5 -16.5q39.5 -16.5 66.5 -44.5q27 -28 41 -66.5q14 -38.5 14 -81.5q0 -43 -14 -81.5q-14 -38.5 -41 -67q-27 -28.5 -66.5 -45.5q-39.5 -17 -90.5 -17q-49 0 -88 17q-39 17 -66.5 45.5q-27.5 28.5 -42 67q-14.5 38.5 -14.5 81.5zt0 0zM125 506q0 -29 8.5 -54q8.5 -25 26 -44q17.5 -19 43 -31q25.5 -12 59.5 -12q35 0 61 12q26 12 43.5 31q17.5 19 26 44q8.5 25 8.5 54q0 28 -8.5 53q-8.5 25 -26 44q-17.5 19 -43.5 30.5q-26 11.5 -61 11.5q-34 0 -59.5 -11.5q-25.5 -11.5 -43 -30.5q-17.5 -19 -26 -44q-8.5 -25 -8.5 -53zt0 0zM267 518q20 0 27.5 7.5q7.5 7.5 7.5 18.5q0 8 -7.5 16q-7.5 8 -27.5 8h-29v-50zM343 425q5 -8 2 -14.5q-3 -6.5 -11 -6.5h-20q-10 0 -17 12l-29 60h-30v-53q0 -12 -5 -15.5q-5 -3.5 -16 -3.5h-7q-9 0 -14.5 3.5q-5.5 3.5 -5.5 15.5v172q0 9 5.5 12q5.5 3 15.5 3h58q44 0 62 -20.5q18 -20.5 18 -45.5q0 -17 -9 -33q-9 -16 -27 -24z" />
<glyph unicode="&#176;" horiz-adv-x="366" d="M232 395q-41 0 -70.5 13q-29.5 13 -49 34q-19.5 21 -28.5 49q-9 28 -9 58q0 29 9 57q9 28 27.5 49.5q18.5 21.5 48.5 35q30 13.5 72 13.5q41 0 71 -13.5q30 -13.5 49.5 -35q19.5 -21.5 28.5 -49.5q9 -28 9 -57q0 -30 -9 -58q-9 -28 -28.5 -49q-19.5 -21 -49.5 -34q-30 -13 -71 -13zt0 0zM232 490q26 0 39 18.5q13 18.5 13 40.5q0 24 -13 42q-13 18 -39 18q-29 0 -41.5 -18q-12.5 -18 -12.5 -42q0 -22 12.5 -40.5t41.5 -18.5z" />
<glyph unicode="&#177;" horiz-adv-x="607" d="M426 365h138q25 0 29.5 -9.5q4.5 -9.5 -0.5 -35.5l-4 -21q-2 -11 -4.5 -19.5q-2.5 -8.5 -7 -14q-4.5 -5.5 -12.5 -8q-8 -2.5 -21 -2.5h-137l-11 -61q-5 -27 -15.5 -32.5q-10.5 -5.5 -33.5 -5.5h-26q-26 0 -35 5.5q-9 5.5 -4 32.5l11 61h-136q-26 0 -30 10q-4 10 0 34l4 21q4 25 11.5 35q7.5 10 33.5 10h137l22 131q5 27 15 32.5q10 5.5 35 5.5h27q23 0 32.5 -5.5q9.5 -5.5 4.5 -32.5zM115 16q-26 0 -29.5 9.5q-3.5 9.5 0.5 32.5l4 25q4 24 11 33.5q7 9.5 34 9.5h387q26 0 29.5 -9.5q3.5 -9.5 -0.5 -33.5l-4 -25q-3 -23 -10.5 -32.5q-7.5 -9.5 -34.5 -9.5z" />
<glyph unicode="&#182;" horiz-adv-x="549" d="M304 571q-27 -3 -47.5 -15q-20.5 -12 -34 -30q-13.5 -18 -20.5 -40.5q-7 -22.5 -7 -47.5q0 -36 17.5 -62q17.5 -26 56.5 -31zM256 259q-40 3 -68.5 17q-28.5 14 -47 36.5q-18.5 22.5 -27 51.5q-8.5 29 -8.5 61q0 44 13.5 86q13.5 42 42 74.5q28.5 32.5 72 52q43.5 19.5 103.5 19.5h36q23 0 32 -5.5q9 -5.5 4 -32.5l-59 -382q-3 -22 -8 -47.5q-5 -25.5 -14.5 -51q-9.5 -25.5 -25.5 -49q-16 -23.5 -41 -40.5q30 9 53 29.5q23 20.5 39.5 48q16.5 27.5 27.5 61.5q11 34 17 71l55 360q5 27 15 32.5q10 5.5 34 5.5h10q23 0 32.5 -5.5q9.5 -5.5 4.5 -32.5l-56 -362q-21 -139 -93.5 -217.5q-72.5 -78.5 -201.5 -78.5q-22 0 -52.5 3q-30.5 3 -52.5 10q-13 4 -17 9q-4 5 -1 20l9 51q4 17 12.5 22q8.5 5 23.5 0q13 -4 22 -6q9 -2 23 -2q33 0 52 28q19 28 29 94z" />
<glyph unicode="&#187;" horiz-adv-x="530" d="M325 380q-15 19 9 40l38 33q22 19 39 -5l134 -176q8 -11 6.5 -24.5q-1.5 -13.5 -12.5 -24.5l-170 -177q-21 -21 -38 -4l-32 33q-11 11 -10 19.5q1 8.5 14 21.5l127 128zM122 370q-15 19 9 40l38 33q22 19 39 -5l127 -166q8 -11 6.5 -24.5q-1.5 -13.5 -12.5 -24.5l-161 -167q-12 -12 -20.5 -12.5q-8.5 -0.5 -17.5 8.5l-32 33q-11 10 -10 19q1 9 14 22l117 118z" />
<glyph unicode="&#188;" horiz-adv-x="915" d="M803 221q47 -10 64.5 -38q17.5 -28 17.5 -62q0 -27 -9 -51q-9 -24 -27.5 -42.5q-18.5 -18.5 -48 -29q-29.5 -10.5 -71.5 -10.5q-54 0 -81.5 20q-27.5 20 -27.5 55q0 11 4 20q5 11 12.5 12q7.5 1 15.5 -2q26 -13 44.5 -15q18.5 -2 31.5 -2q23 0 41 8.5q18 8.5 18 33.5q0 11 -6 17.5q-6 6.5 -15 10q-9 3.5 -19.5 4.5q-10.5 1 -20.5 1h-12q-15 0 -23.5 5q-8.5 5 -5.5 23l2 11q2 9 5 15q3 6 14 15l68 55h-89q-20 0 -25.5 7q-5.5 7 -2.5 28l3 20q3 20 12 27q9 7 29 7h180q15 0 23 -6.5q8 -6.5 5 -26.5l-2 -12q-2 -10 -7.5 -19.5q-5.5 -9.5 -20.5 -20.5zM355 624q23 0 28.5 -7.5q5.5 -7.5 1.5 -28.5l-48 -270q-4 -21 -11.5 -28.5q-7.5 -7.5 -30.5 -7.5h-23q-22 0 -28 7.5q-6 7.5 -2 28.5l34 195l-33 -20q-22 -12 -33 7l-12 21q-8 15 -3.5 24q4.5 9 16.5 16l92 53q12 7 19.5 8.5q7.5 1.5 14.5 1.5zM294 8q-23 -26 -45 -11l-30 22q-22 16 0 41l493 555q12 14 21.5 16.5q9.5 2.5 22.5 -6.5l31 -21q23 -15 -1 -41z" />
<glyph unicode="&#189;" horiz-adv-x="914" d="M795 72l-7 -37q-4 -20 -12 -27.5q-8 -7.5 -30 -7.5h-18q-23 0 -28.5 7.5q-5.5 7.5 -1.5 27.5l7 37h-135q-40 0 -32 38l3 13q2 12 9.5 24q7.5 12 15.5 21l156 168q12 14 24.5 21q12.5 7 32.5 7h31q22 0 28 -7.5q6 -7.5 2 -27.5l-31 -177h15q20 0 26 -6.5q6 -6.5 2 -27.5l-2 -12q-4 -20 -12 -27q-8 -7 -28 -7zM741 260l-100 -108h81zM355 624q23 0 28.5 -7.5q5.5 -7.5 1.5 -28.5l-48 -270q-4 -21 -11.5 -28.5q-7.5 -7.5 -30.5 -7.5h-23q-22 0 -28 7.5q-6 7.5 -2 28.5l34 195l-33 -20q-22 -12 -33 7l-12 21q-8 15 -3.5 24q4.5 9 16.5 16l92 53q12 7 19.5 8.5q7.5 1.5 14.5 1.5zM294 8q-23 -26 -45 -11l-30 22q-22 16 0 41l493 555q12 14 21.5 16.5q9.5 2.5 22.5 -6.5l31 -21q23 -15 -1 -41z" />
<glyph unicode="&#215;" horiz-adv-x="523" d="M331 376l132 114q21 19 30.5 16q9.5 -3 24.5 -21l12 -15q14 -17 14.5 -28q0.5 -11 -21.5 -30l-128 -112l90 -111q15 -18 11 -29q-4 -11 -25 -28l-19 -14q-11 -8 -18.5 -13.5q-7.5 -5.5 -13.5 -7q-6 -1.5 -12 2q-6 3.5 -14 13.5l-88 112l-129 -113q-11 -9 -18 -12.5q-7 -3.5 -12.5 -2.5q-5.5 1 -11 6.5q-5.5 5.5 -12.5 13.5l-12 13q-8 9 -12.5 15.5q-4.5 6.5 -4.5 12.5q0 6 5.5 13q5.5 7 16.5 17l126 112l-89 111q-14 18 -9.5 29.5q4.5 11.5 24.5 28.5l19 16q18 15 29.5 19q11.5 4 27.5 -16z" />
<glyph unicode="&#247;" horiz-adv-x="588" d="M148 236q-26 0 -30 10q-4 10 1 34l4 23q4 25 11 35q7 10 34 10h387q26 0 30 -9.5q4 -9.5 -1 -35.5l-4 -23q-2 -12 -4.5 -20.5q-2.5 -8.5 -7 -13.5q-4.5 -5 -12.5 -7.5q-8 -2.5 -21 -2.5zM244 105q0 18 7.5 34q7.5 16 20 28q12.5 12 28.5 19q16 7 33 7q29 0 46.5 -19q17.5 -19 17.5 -47q0 -18 -7.5 -34q-7.5 -16 -20 -28q-12.5 -12 -28.5 -19q-16 -7 -34 -7q-28 0 -45.5 19q-17.5 19 -17.5 47zt0 0zM305 457q0 18 7.5 34q7.5 16 20 28q12.5 12 28.5 19q16 7 33 7q29 0 46.5 -19q17.5 -19 17.5 -47q0 -18 -7.5 -34q-7.5 -16 -20 -28q-12.5 -12 -28.5 -19q-16 -7 -34 -7q-29 0 -46 19t-17 47z" />
<glyph unicode="&#916;" horiz-adv-x="630" d="M630 65q6 -26 -6.5 -45.5q-12.5 -19.5 -45.5 -19.5h-508q-33 0 -38.5 19.5q-5.5 19.5 6.5 41.5l336 579q11 18 20 24.5q9 6.5 23 6.5h41q14 0 21.5 -6q7.5 -6 12.5 -25zM483 115l-65 299l-8 101l-43 -101l-165 -299z" />
<glyph unicode="&#1025;" horiz-adv-x="481" d="M218 771q0 36 22.5 59q22.5 23 58.5 23q31 0 49 -17q18 -17 18 -46q0 -35 -25.5 -57q-25.5 -22 -60.5 -22q-29 0 -45.5 16.5q-16.5 16.5 -16.5 43.5zt0 0zM429 772q0 35 23.5 58q23.5 23 61.5 23q29 0 47 -17q18 -17 18 -46q0 -35 -25 -57q-25 -22 -60 -22q-32 0 -48.5 16.5q-16.5 16.5 -16.5 44.5zt0 0zM80 0q-23 0 -31 8.5q-8 8.5 -3 33.5l116 576q5 23 14 31q9 8 32 8h326q18 0 30 -8q12 -8 8 -37l-5 -28q-2 -13 -5 -21q-3 -8 -8.5 -13q-5.5 -5 -14 -7q-8.5 -2 -22.5 -2h-250q-8 -37 -14 -73.5q-6 -36.5 -14 -74.5l192 0q18 0 30 -8q12 -8 8 -37l-5 -28q-2 -13 -5 -21q-3 -8 -8.5 -13q-5.5 -5 -14 -7q-8.5 -2 -22.5 -2h-198l-33 -161h245q18 0 30 -8q12 -8 8 -37l-5 -28q-2 -13 -5 -21q-3 -8 -8.5 -13q-5.5 -5 -14 -7q-8.5 -2 -22.5 -2z" />
<glyph unicode="&#1040;" horiz-adv-x="573" d="M390 427v110l-47 -110l-93 -167h151zM-6 0q-23 1 -26 17.5q-3 16.5 11 37.5l376 594q9 13 17 17.5q8 4.5 22 4.5h40q17 0 25.5 -5.5q8.5 -5.5 11.5 -19.5l86 -591q4 -25 0.5 -40q-3.5 -15 -27.5 -15h-43q-12 0 -21 0q-9 0 -15.5 3q-6.5 3 -10.5 11q-4 8 -6 24l-16 108h-241l-76 -118q-13 -21 -24.5 -24.5q-11.5 -3.5 -23.5 -3.5z" />
<glyph unicode="&#1041;" horiz-adv-x="538" d="M268 542l-26 -128q20 2 38 3.5q18 1.5 38 1.5q44 0 85 -8.5q41 -8.5 72.5 -28q31.5 -19.5 50 -51q18.5 -31.5 18.5 -78.5q0 -58 -19.5 -105q-19.5 -47 -57.5 -80q-38 -33 -93.5 -50.5q-55.5 -17.5 -126.5 -17.5h-166q-23 0 -31.5 8.5q-8.5 8.5 -3.5 34.5l116 575q5 23 14.5 31q9.5 8 32.5 8h337q18 0 30 -8q12 -8 8 -37l-5 -27q-2 -13 -5 -21q-3 -8 -8.5 -13q-5.5 -5 -14 -7q-8.5 -2 -21.5 -2zM302 313q-15 0 -37.5 -0.5q-22.5 -0.5 -42.5 -2.5l-39 -196h73q85 0 125.5 31q40.5 31 40.5 85q0 42 -32 62.5t-88 20.5z" />
<glyph unicode="&#1042;" horiz-adv-x="550" d="M162 618q5 23 14.5 31q9.5 8 32.5 8h169q55 0 94 -11q39 -11 64 -30.5q25 -19.5 36 -46.5q11 -27 11 -59q0 -51 -27 -97q-27 -46 -82 -68q43 -18 60.5 -53q17.5 -35 17.5 -73q0 -45 -17.5 -85q-17.5 -40 -53.5 -70q-36 -30 -91 -47q-55 -17 -131 -17h-178q-23 0 -31.5 8.5q-8.5 8.5 -3.5 34.5zM215 279l-33 -165h114q36 0 61 8q25 8 40.5 21.5q15.5 13.5 22.5 31.5q7 18 7 39q0 27 -21 46q-21 19 -65 19zM236 383h102q51 0 84 25.5q33 25.5 33 69.5q0 26 -20 46q-20 20 -71 20l-95 0z" />
<glyph unicode="&#1043;" horiz-adv-x="440" d="M267 542l-99 -503q-5 -23 -14.5 -31q-9.5 -8 -32.5 -8h-40q-23 0 -31.5 8.5q-8.5 8.5 -3.5 34.5l116 575q5 23 14.5 31q9.5 8 32.5 8h310q18 0 30 -8q12 -8 8 -37l-5 -27q-2 -13 -5 -21q-3 -8 -8.5 -13q-5.5 -5 -14 -7q-8.5 -2 -21.5 -2z" />
<glyph unicode="&#1044;" horiz-adv-x="667" d="M534 0h-446l-27 -132q-5 -23 -14.5 -31q-9.5 -8 -32.5 -8h-30q-23 0 -31.5 8.5q-8.5 8.5 -3.5 34.5l42 207q5 23 14.5 31q9.5 8 32.5 8h39q32 37 58 82q26 45 48.5 104.5q22.5 59.5 42 136q19.5 76.5 39.5 177.5q5 23 14.5 31q9.5 8 33.5 8h332q24 0 32.5 -8.5q8.5 -8.5 3.5 -34.5l-99 -496h43q24 0 32.5 -8.5q8.5 -8.5 3.5 -34.5l-41 -207q-5 -23 -14.5 -31q-9.5 -8 -32.5 -8h-30q-23 0 -31.5 8.5q-8.5 8.5 -3.5 34.5zM366 541q-32 -143 -68 -248.5q-36 -105.5 -83 -174.5l246 0l85 423z" />
<glyph unicode="&#1045;" horiz-adv-x="481" d="M80 0q-23 0 -31 8.5q-8 8.5 -3 33.5l116 576q5 23 14 31q9 8 32 8h326q18 0 30 -8q12 -8 8 -37l-5 -28q-2 -13 -5 -21q-3 -8 -8.5 -13q-5.5 -5 -14 -7q-8.5 -2 -22.5 -2h-250q-8 -37 -14 -73.5q-6 -36.5 -14 -74.5l192 0q18 0 30 -8q12 -8 8 -37l-5 -28q-2 -13 -5 -21q-3 -8 -8.5 -13q-5.5 -5 -14 -7q-8.5 -2 -22.5 -2h-198l-33 -161h245q18 0 30 -8q12 -8 8 -37l-5 -28q-2 -13 -5 -21q-3 -8 -8.5 -13q-5.5 -5 -14 -7q-8.5 -2 -22.5 -2z" />
<glyph unicode="&#1046;" horiz-adv-x="792" d="M367 288h-35q-11 0 -25 -17l-201 -241q-14 -17 -25 -23.5q-11 -6.5 -26 -6.5h-57q-13 0 -20 5.5q-7 5.5 -9 13.5q-2 8 0.5 17q2.5 9 9.5 17l253 292l-121 257q-5 9 -8 19q-3 10 -2 18q1 8 6.5 13q5.5 5 19.5 5h50q15 0 31.5 -3.5q16.5 -3.5 26.5 -26.5l96 -229h58l45 220q5 23 14.5 31q9.5 8 32.5 8h32q24 0 32.5 -8.5q8.5 -8.5 3.5 -34.5l-43 -216h49l197 234q16 17 28.5 21q12.5 4 27.5 4h47q27 0 30 -17.5q3 -17.5 -14 -37.5l-226 -257l136 -292q4 -9 6.5 -18.5q2.5 -9.5 1 -17q-1.5 -7.5 -7.5 -12.5q-6 -5 -19 -5h-55q-17 0 -30 5.5q-13 5.5 -21 24.5l-103 241q-4 7 -9 12q-5 5 -15 5h-45l-49 -249q-5 -23 -14.5 -31q-9.5 -8 -32.5 -8h-35q-23 0 -31.5 8.5q-8.5 8.5 -3.5 34.5z" />
<glyph unicode="&#1047;" horiz-adv-x="478" d="M254 388q25 0 49.5 5q24.5 5 43.5 16.5q19 11.5 31 30q12 18.5 12 46.5q0 41 -25 56.5q-25 15.5 -64 15.5q-33 0 -68.5 -7.5q-35.5 -7.5 -72.5 -23.5q-10 -4 -17 -3q-7 1 -15 9q-15 16 -15 41q0 25 19.5 43.5q19.5 18.5 50 30.5q30.5 12 68.5 17.5q38 5.5 74 5.5q45 0 79.5 -12q34.5 -12 58 -33q23.5 -21 36 -49.5q12.5 -28.5 12.5 -61.5q0 -28 -8.5 -55.5q-8.5 -27.5 -24.5 -51q-16 -23.5 -39 -41.5q-23 -18 -52 -27q20 -7 35 -20.5q15 -13.5 25.5 -31q10.5 -17.5 15.5 -37.5q5 -20 5 -38q0 -57 -19.5 -99.5q-19.5 -42.5 -54.5 -70.5q-35 -28 -83 -42q-48 -14 -104 -14q-48 0 -95.5 13.5q-47.5 13.5 -100.5 48.5q-3 2 -7 5.5q-4 3.5 -6.5 8.5q-2.5 5 -2 12.5q0.5 7.5 5.5 17.5l23 39q9 15 19.5 14.5q10.5 -0.5 21.5 -6.5q35 -17 69 -28q34 -11 73 -11q27 0 52 6q25 6 44 18.5q19 12.5 30.5 32.5q11.5 20 11.5 48q0 34 -25.5 52q-25.5 18 -85.5 18h-55q-20 0 -28.5 4.5q-8.5 4.5 -8.5 19.5q0 8 3 22l6 29q5 22 12 29.5q7 7.5 28 7.5l63 0z" />
<glyph unicode="&#1048;" horiz-adv-x="666" d="M81 0q-23 0 -31.5 8.5q-8.5 8.5 -3.5 34.5l116 575q5 23 14.5 31q9.5 8 32.5 8h37q24 0 32.5 -8.5q8.5 -8.5 3.5 -34.5l-69 -347l-33 -97l63 96l334 373q12 12 21.5 15q9.5 3 21.5 3h36q24 0 32.5 -8.5q8.5 -8.5 3.5 -34.5l-114 -575q-5 -23 -14.5 -31q-9.5 -8 -32.5 -8h-40q-23 0 -31.5 8.5q-8.5 8.5 -3.5 34.5l70 347l32 98l-63 -97l-334 -373q-12 -12 -21.5 -15q-9.5 -3 -21.5 -3z" />
<glyph unicode="&#1049;" horiz-adv-x="666" d="M350 847q13 6 19.5 0.5q6.5 -5.5 9.5 -9.5q19 -25 40.5 -40q21.5 -15 47.5 -15q25 0 52 15q27 15 56 44q8 9 15 8q7 -1 17 -9l30 -25q17 -12 7 -31q-31 -50 -84 -79q-53 -29 -114 -29q-108 0 -157 110q-6 15 -1 23.5q5 8.5 15 13.5zM81 0q-23 0 -31.5 8.5q-8.5 8.5 -3.5 34.5l116 575q5 23 14.5 31q9.5 8 32.5 8h37q24 0 32.5 -8.5q8.5 -8.5 3.5 -34.5l-69 -347l-33 -97l63 96l334 373q12 12 21.5 15q9.5 3 21.5 3h36q24 0 32.5 -8.5q8.5 -8.5 3.5 -34.5l-114 -575q-5 -23 -14.5 -31q-9.5 -8 -32.5 -8h-40q-23 0 -31.5 8.5q-8.5 8.5 -3.5 34.5l70 347l32 98l-63 -97l-334 -373q-12 -12 -21.5 -15q-9.5 -3 -21.5 -3z" />
<glyph unicode="&#1050;" horiz-adv-x="551" d="M162 618q5 23 14.5 31q9.5 8 32.5 8h37q24 0 32.5 -8.5q8.5 -8.5 3.5 -34.5l-43 -216h72l192 234q12 16 26.5 20.5q14.5 4.5 29.5 4.5h49q27 0 30 -17.5q3 -17.5 -14 -37.5l-219 -257l150 -292q4 -9 6.5 -18.5q2.5 -9.5 1 -17q-1.5 -7.5 -7.5 -12.5q-6 -5 -19 -5h-58q-17 0 -30 5.5q-13 5.5 -21 24.5l-117 241q-4 7 -9 12q-5 5 -15 5h-69l-49 -249q-5 -23 -14.5 -31q-9.5 -8 -32.5 -8h-40q-23 0 -31.5 8.5q-8.5 8.5 -3.5 34.5z" />
<glyph unicode="&#1051;" horiz-adv-x="613" d="M219 618q8 26 21.5 32.5q13.5 6.5 34.5 6.5h328q24 0 32.5 -8.5q8.5 -8.5 3.5 -34.5l-114 -575q-5 -23 -14.5 -31q-9.5 -8 -32.5 -8h-40q-23 0 -31.5 8.5q-8.5 8.5 -3.5 34.5l100 498h-181q-34 -139 -61.5 -242q-27.5 -103 -58 -170.5q-30.5 -67.5 -68 -101q-37.5 -33.5 -92.5 -33.5q-16 0 -30.5 1.5q-14.5 1.5 -29.5 7.5q-5 2 -12 10.5q-7 8.5 -2 25.5l15 54q3 10 8.5 15.5q5.5 5.5 21.5 4.5q17 0 32.5 7.5q15.5 7.5 30.5 28q15 20.5 30.5 56q15.5 35.5 33 92q17.5 56.5 37 135.5t42.5 186z" />
<glyph unicode="&#1052;" horiz-adv-x="770" d="M696 39q-4 -23 -14 -31q-10 -8 -33 -8h-40q-23 0 -32 8.5q-9 8.5 -4 34.5l52 291l31 134l-60 -134l-170 -294q-10 -19 -19.5 -26.5q-9.5 -7.5 -29.5 -7.5h-37q-20 0 -28 8q-8 8 -12 28l-54 292l-21 134l-10 -134l-65 -295q-5 -23 -14.5 -31q-9.5 -8 -32.5 -8h-39q-23 0 -31.5 8.5q-8.5 8.5 -3.5 34.5l134 568q8 31 22 38.5q14 7.5 37 7.5h45q21 0 32.5 -10q11.5 -10 16.5 -38l70 -449l245 449q28 48 64 48h48q11 0 20.5 -0.5q9.5 -0.5 15.5 -5.5q6 -5 8.5 -15.5q2.5 -10.5 -0.5 -30.5z" />
<glyph unicode="&#1053;" horiz-adv-x="662" d="M499 276h-284l-47 -237q-5 -23 -14.5 -31q-9.5 -8 -32.5 -8h-40q-23 0 -31.5 8.5q-8.5 8.5 -3.5 34.5l116 575q5 23 14.5 31q9.5 8 32.5 8h37q24 0 32.5 -8.5q8.5 -8.5 3.5 -34.5l-43 -218h284l45 222q5 23 14.5 31q9.5 8 33.5 8h36q24 0 32.5 -8.5q8.5 -8.5 3.5 -34.5l-114 -575q-5 -23 -14.5 -31q-9.5 -8 -32.5 -8h-40q-23 0 -31.5 8.5q-8.5 8.5 -3.5 34.5z" />
<glyph unicode="&#1054;" horiz-adv-x="676" d="M315 -12q-139 0 -208.5 65.5q-69.5 65.5 -69.5 193.5q0 83 30 159q30 76 83.5 134q53.5 58 128.5 93q75 35 165 37q127 -2 195 -70q68 -68 68 -189q0 -83 -28 -158.5q-28 -75.5 -79 -133.5q-51 -58 -123 -93q-72 -35 -161 -38zM428 559q-57 0 -106 -26q-49 -26 -85 -69.5q-36 -43.5 -56.5 -99.5q-20.5 -56 -20.5 -117q0 -72 42.5 -109.5q42.5 -37.5 114.5 -37.5q56 0 104.5 26q48.5 26 84.5 69q36 43 56.5 99q20.5 56 20.5 117q0 74 -41.5 111t-113.5 37z" />
<glyph unicode="&#1055;" horiz-adv-x="657" d="M546 537h-280l-98 -498q-5 -23 -14.5 -31q-9.5 -8 -32.5 -8h-40q-23 0 -31.5 8.5q-8.5 8.5 -3.5 34.5l116 575q5 23 14.5 31q9.5 8 32.5 8h438q24 0 32.5 -8.5q8.5 -8.5 3.5 -34.5l-114 -575q-5 -23 -14.5 -31q-9.5 -8 -32.5 -8h-40q-23 0 -31.5 8.5q-8.5 8.5 -3.5 34.5z" />
<glyph unicode="&#1056;" horiz-adv-x="516" d="M162 618q5 23 14.5 31q9.5 8 32.5 8h153q63 0 107 -13.5q44 -13.5 71 -37q27 -23.5 39 -55.5q12 -32 12 -69q0 -54 -18 -102.5q-18 -48.5 -57 -85q-39 -36.5 -100 -58q-61 -21.5 -147 -21.5q-27 0 -39 0q-12 0 -27 1l-35 -177q-5 -23 -14.5 -31q-9.5 -8 -32.5 -8h-40q-23 0 -31.5 8.5q-8.5 8.5 -3.5 34.5zM268 543l-42 -215q11 -1 23.5 -1q12.5 0 22.5 0q54 0 92 11.5q38 11.5 61.5 30.5q23.5 19 34.5 43.5q11 24.5 11 51.5q0 35 -29 57q-29 22 -92 22z" />
<glyph unicode="&#1057;" horiz-adv-x="548" d="M37 241q0 84 25.5 161.5q25.5 77.5 74.5 137q49 59.5 121 95.5q72 36 164 36q24 0 58 -4.5q34 -4.5 64.5 -16.5q30.5 -12 52 -32q21.5 -20 21.5 -51q0 -31 -26 -55q-13 -11 -30 0q-33 21 -71.5 32q-38.5 11 -77.5 11q-52 0 -98 -20.5q-46 -20.5 -80.5 -58.5q-34.5 -38 -54.5 -93.5q-20 -55.5 -20 -124.5q0 -42 12 -71.5q12 -29.5 32 -48q20 -18.5 47.5 -27.5q27.5 -9 59.5 -9q38 0 81 12q43 12 100 38q10 5 19.5 3q9.5 -2 14.5 -15l12 -36q7 -21 0 -30.5q-7 -9.5 -12 -13.5q-60 -41 -117.5 -57q-57.5 -16 -111.5 -16q-52 0 -99 14.5q-47 14.5 -83 45.5q-36 31 -57 79t-21 115z" />
<glyph unicode="&#1058;" horiz-adv-x="483" d="M391 542l-99 -503q-5 -23 -14.5 -31q-9.5 -8 -32.5 -8h-40q-23 0 -31.5 8.5q-8.5 8.5 -3.5 34.5l100 499h-157q-23 0 -31.5 11q-8.5 11 -5.5 32l5 27q5 24 13.5 34.5q8.5 10.5 31.5 10.5h441q18 0 30 -8q12 -8 8 -37l-5 -27q-2 -13 -5 -21q-3 -8 -8.5 -13q-5.5 -5 -14 -7q-8.5 -2 -21.5 -2z" />
<glyph unicode="&#1059;" horiz-adv-x="501" d="M374 218q-35 -59 -62.5 -101.5q-27.5 -42.5 -54 -69.5q-26.5 -27 -55.5 -40q-29 -13 -67 -13q-21 0 -42 5.5q-21 5.5 -38 16.5q-5 3 -10 8.5q-5 5.5 2 22.5l23 54q5 11 10.5 13.5q5.5 2.5 18.5 -1.5q15 -4 30 -4q30 0 53 20.5q23 20.5 41 57.5l-131 424q-5 17 0.5 31.5q5.5 14.5 30.5 14.5h66q14 0 22.5 -6q8.5 -6 14.5 -27l81 -308l187 312q12 19 20.5 24q8.5 5 22.5 5h61q23 0 26.5 -14.5q3.5 -14.5 -7.5 -31.5z" />
<glyph unicode="&#1060;" horiz-adv-x="681" d="M379 661q5 23 14.5 31q9.5 8 32.5 8h37q24 0 32.5 -8.5q8.5 -8.5 3.5 -34.5l-7 -33q61 -3 103.5 -22.5q42.5 -19.5 69.5 -50.5q27 -31 39 -70.5q12 -39.5 12 -82.5q0 -64 -21 -118.5q-21 -54.5 -62 -95.5q-41 -41 -103 -66q-62 -25 -143 -29l-10 -50q-5 -23 -14.5 -31q-9.5 -8 -32.5 -8h-40q-23 0 -31.5 8.5q-8.5 8.5 -3.5 34.5l9 46q-61 3 -103.5 22q-42.5 19 -69 50q-26.5 31 -38.5 70.5q-12 39.5 -12 83.5q0 64 21 118.5q21 54.5 62.5 95.5q41.5 41 103 65.5q61.5 24.5 143.5 29.5zM162 323q0 -55 29 -88q29 -33 95 -38l64 319q-52 -4 -88 -22q-36 -18 -58 -45q-22 -27 -32 -60q-10 -33 -10 -66zt0 0zM595 390q0 55 -29 88q-29 33 -95 38l-63 -319q52 4 87.5 22q35.5 18 57.5 45q22 27 32 60q10 33 10 66zt0 0z" />
<glyph unicode="&#1061;" horiz-adv-x="535" d="M483 627q17 20 28 25q11 5 25 5h59q26 0 30.5 -15q4.5 -15 -6.5 -29l-242 -283l133 -284q8 -17 3.5 -31.5q-4.5 -14.5 -33.5 -14.5h-47q-17 0 -29 6q-12 6 -20 21l-97 209l-174 -209q-14 -17 -24 -22q-10 -5 -26 -5h-61q-22 0 -27.5 16.5q-5.5 16.5 4.5 30.5l258 301l-133 265q-8 17 -3 30.5q5 13.5 35 13.5h55q17 0 26.5 -4.5q9.5 -4.5 20.5 -26.5l88 -187z" />
<glyph unicode="&#1062;" horiz-adv-x="657" d="M528 0h-447q-23 0 -31.5 8.5q-8.5 8.5 -3.5 34.5l116 575q5 23 14.5 31q9.5 8 32.5 8h37q24 0 32.5 -8.5q8.5 -8.5 3.5 -34.5l-99 -496h274l101 500q5 23 14.5 31q9.5 8 33.5 8h36q24 0 32.5 -8.5q8.5 -8.5 3.5 -34.5l-99 -496h44q24 0 32.5 -8.5q8.5 -8.5 3.5 -34.5l-41 -207q-5 -23 -14.5 -31q-9.5 -8 -32.5 -8h-34q-23 0 -31.5 8.5q-8.5 8.5 -3.5 34.5z" />
<glyph unicode="&#1063;" horiz-adv-x="553" d="M463 618q5 23 14.5 31q9.5 8 32.5 8h37q24 0 32.5 -8.5q8.5 -8.5 3.5 -34.5l-114 -575q-5 -23 -14.5 -31q-9.5 -8 -32.5 -8h-40q-23 0 -31.5 8.5q-8.5 8.5 -3.5 34.5l43 212q-80 -53 -157 -53q-46 0 -78 10.5q-32 10.5 -51.5 30q-19.5 19.5 -28 47q-8.5 27.5 -8.5 60.5q0 17 2 35.5q2 18.5 6 38.5l39 194q5 23 14.5 31q9.5 8 32.5 8h37q24 0 32.5 -8.5q8.5 -8.5 3.5 -34.5l-42 -214q-3 -15 -3 -26q0 -33 19.5 -47q19.5 -14 48.5 -14q23 0 48.5 8.5q25.5 8.5 48.5 21q23 12.5 40 27q17 14.5 24 27.5z" />
<glyph unicode="&#1064;" horiz-adv-x="848" d="M162 618q5 23 14.5 31q9.5 8 32.5 8h37q24 0 32.5 -8.5q8.5 -8.5 3.5 -34.5l-99 -496h174l101 500q5 23 14.5 31q9.5 8 32.5 8h37q24 0 32.5 -8.5q8.5 -8.5 3.5 -34.5l-99 -496h174l101 500q5 23 14.5 31q9.5 8 33.5 8h36q24 0 32.5 -8.5q8.5 -8.5 3.5 -34.5l-114 -575q-5 -23 -14.5 -31q-9.5 -8 -32.5 -8h-632q-23 0 -31.5 8.5q-8.5 8.5 -3.5 34.5z" />
<glyph unicode="&#1065;" horiz-adv-x="852" d="M724 0h-11h-632q-23 0 -31.5 8.5q-8.5 8.5 -3.5 34.5l116 575q5 23 14.5 31q9.5 8 32.5 8h37q24 0 32.5 -8.5q8.5 -8.5 3.5 -34.5l-99 -496h174l101 500q5 23 14.5 31q9.5 8 32.5 8h37q24 0 32.5 -8.5q8.5 -8.5 3.5 -34.5l-99 -496h174l101 500q5 23 14.5 31q9.5 8 33.5 8h36q24 0 32.5 -8.5q8.5 -8.5 3.5 -34.5l-99 -496h44q24 0 32.5 -8.5q8.5 -8.5 3.5 -34.5l-41 -207q-5 -23 -14.5 -31q-9.5 -8 -32.5 -8h-34q-23 0 -31.5 8.5q-8.5 8.5 -3.5 34.5z" />
<glyph unicode="&#1066;" horiz-adv-x="608" d="M222 542h-111q-23 0 -31.5 11q-8.5 11 -5.5 32l5 27q5 24 13.5 34.5q8.5 10.5 31.5 10.5h198q23 0 31.5 -8.5q8.5 -8.5 4.5 -33.5l1 -1l-1 -1l-37 -187q14 2 33 3q19 1 31 1q118 0 173.5 -44.5q55.5 -44.5 55.5 -127.5q0 -56 -19 -103q-19 -47 -56 -81.5q-37 -34.5 -93 -54q-56 -19.5 -129 -19.5h-160q-23 0 -31.5 8.5q-8.5 8.5 -3.5 34.5zM371 320q-12 0 -34 -1.5q-22 -1.5 -38 -3.5l-40 -200h65q86 0 126.5 34q40.5 34 40.5 91q0 39 -31 59.5t-89 20.5z" />
<glyph unicode="&#1067;" horiz-adv-x="775" d="M162 618q5 23 14.5 31q9.5 8 32.5 8h37q24 0 32.5 -8.5q8.5 -8.5 3.5 -34.5l-38 -188q14 2 31 3q17 1 28 1q118 0 173 -44.5q55 -44.5 55 -127.5q0 -56 -19 -103q-19 -47 -56 -81.5q-37 -34.5 -93 -54q-56 -19.5 -129 -19.5h-153q-23 0 -31.5 8.5q-8.5 8.5 -3.5 34.5zM681 618q5 23 14.5 31q9.5 8 32.5 8h37q24 0 32.5 -8.5q8.5 -8.5 3.5 -34.5l-114 -575q-5 -23 -14.5 -31q-9.5 -8 -32.5 -8h-40q-23 0 -31.5 8.5q-8.5 8.5 -3.5 34.5zM288 320q-11 0 -30.5 -1.5q-19.5 -1.5 -35.5 -3.5l-39 -200h58q86 0 126.5 34q40.5 34 40.5 91q0 39 -31 59.5t-89 20.5z" />
<glyph unicode="&#1068;" horiz-adv-x="532" d="M162 618q5 23 14.5 31q9.5 8 32.5 8h37q24 0 32.5 -8.5q8.5 -8.5 3.5 -34.5l-37 -188q14 2 33 3q19 1 31 1q118 0 173.5 -44.5q55.5 -44.5 55.5 -127.5q0 -56 -19 -103q-19 -47 -56 -81.5q-37 -34.5 -93 -54q-56 -19.5 -129 -19.5h-160q-23 0 -31.5 8.5q-8.5 8.5 -3.5 34.5zM295 320q-12 0 -34 -1.5q-22 -1.5 -38 -3.5l-40 -200h65q86 0 126.5 34q40.5 34 40.5 91q0 39 -31 59.5t-89 20.5z" />
<glyph unicode="&#1069;" horiz-adv-x="541" d="M225 -13q-59 0 -111.5 14.5q-52.5 14.5 -100.5 47.5q-3 2 -6.5 4.5q-3.5 2.5 -6 7q-2.5 4.5 -2 11.5q0.5 7 6.5 16l26 41q9 14 17.5 14q8.5 0 22.5 -6q36 -17 74.5 -24.5q38.5 -7.5 73.5 -9.5q40 -1 77 10.5q37 11.5 66 34q29 22.5 49 56q20 33.5 27 76.5l-240 0q-44 0 -37 43l6 25q6 24 13.5 33q7.5 9 30.5 9h239q5 86 -34.5 126.5q-39.5 40.5 -120.5 40.5q-32 0 -70.5 -8q-38.5 -8 -77.5 -24q-10 -4 -17 -3.5q-7 0.5 -12 8.5q-13 20 -13 43q0 25 19.5 43.5q19.5 18.5 50.5 30.5q31 12 68.5 18q37.5 6 72.5 6q132 0 193.5 -70q61.5 -70 60.5 -193q-1 -101 -27.5 -179q-26.5 -78 -72.5 -132q-46 -54 -109 -82t-136 -28z" />
<glyph unicode="&#1070;" horiz-adv-x="891" d="M162 618q5 23 14.5 31q9.5 8 32.5 8h37q24 0 32.5 -8.5q8.5 -8.5 3.5 -34.5l-43 -218h90q19 58 52 107.5q33 49.5 78 86q45 36.5 100.5 57.5q55.5 21 119.5 23q117 -2 180 -70q63 -68 63 -189q0 -83 -25.5 -158.5q-25.5 -75.5 -72.5 -133.5q-47 -58 -113.5 -93q-66.5 -35 -148.5 -38l-1 0q-128 0 -192 65.5q-64 65.5 -64 193.5q0 8 0 14.5q0 6.5 1 14.5l-91 0l-47 -237q-5 -23 -14.5 -31q-9.5 -8 -32.5 -8h-40q-23 0 -31.5 8.5q-8.5 8.5 -3.5 34.5zM665 559q-53 0 -97.5 -26q-44.5 -26 -76.5 -69.5q-32 -43.5 -50.5 -99.5q-18.5 -56 -18.5 -117q0 -72 37 -109.5q37 -37.5 104 -37.5q51 0 95 26q44 26 76 69q32 43 50.5 99q18.5 56 18.5 117q0 74 -36 111t-102 37z" />
<glyph unicode="&#1071;" horiz-adv-x="552" d="M288 225l-153 -195q-15 -21 -26.5 -25.5q-11.5 -4.5 -28.5 -4.5h-63q-12 0 -19 5.5q-7 5.5 -9 13.5q-2 8 0.5 17q2.5 9 9.5 17l178 216q-22 10 -38 26.5q-16 16.5 -26.5 36.5q-10.5 20 -16 42.5q-5.5 22.5 -5.5 44.5q0 64 26 109.5q26 45.5 69.5 74q43.5 28.5 99 41.5q55.5 13 115.5 13h106h7h36q24 0 32.5 -8.5q8.5 -8.5 3.5 -34.5l-114 -575q-5 -23 -14.5 -31q-9.5 -8 -32.5 -8h-40q-23 0 -31.5 8.5q-8.5 8.5 -3.5 34.5l40 198h-72q-13 0 -20 -6.5q-7 -6.5 -10 -9.5zt0 0zM212 433q0 -82 125 -82h75l39 192h-60q-35 0 -67 -5.5q-32 -5.5 -57 -18.5q-25 -13 -40 -34t-15 -52z" />
<glyph unicode="&#1072;" horiz-adv-x="526" d="M181 176q0 -44 16.5 -61q16.5 -17 39.5 -17q19 0 41 10q22 10 42.5 28q20.5 18 37 42q16.5 24 24.5 52l35 155q-32 9 -58 9q-43 0 -76.5 -20.5q-33.5 -20.5 -56 -52q-22.5 -31.5 -34 -70q-11.5 -38.5 -11.5 -75.5zt0 0zM368 82q-12 -17 -30.5 -34q-18.5 -17 -41 -30.5q-22.5 -13.5 -48 -22q-25.5 -8.5 -50.5 -8.5q-69 0 -102 41.5q-33 41.5 -33 110.5q0 69 19 133q19 64 58 113q39 49 99 79.5q60 30.5 143 32.5q27 0 55.5 -4q28.5 -4 57.5 -13q27 -9 39 -23q12 -14 7 -39l-60 -273q-5 -26 -1 -52q4 -26 13 -48q5 -11 0 -19q-5 -8 -13 -12l-48 -23q-24 -11 -36 7q-12 19 -17.5 41.5q-5.5 22.5 -7.5 42.5z" />
<glyph unicode="&#1073;" horiz-adv-x="525" d="M282 91q33 0 61 16q28 16 48 42q20 26 31.5 58q11.5 32 11.5 64q0 17 -4.5 33.5q-4.5 16.5 -14 29q-9.5 12.5 -25 20.5q-15.5 8 -37.5 8q-32 0 -61 -11q-29 -11 -50.5 -32.5q-21.5 -21.5 -34.5 -53.5q-13 -32 -13 -75q0 -42 20 -70.5q20 -28.5 68 -28.5zt0 0zM277 -13q-59 0 -97 17q-38 17 -61 45q-23 28 -32 64q-9 36 -9 74q0 52 12 119.5q12 67.5 39 132.5q27 65 71.5 118q44.5 53 110.5 76q28 10 58.5 16q30.5 6 61 11q30.5 5 61.5 10.5q31 5.5 61 14.5q18 4 26 -8q9 -18 9 -37q0 -23 -9 -37q-9 -14 -25 -22.5q-16 -8.5 -37 -12.5q-21 -4 -45 -7q-42 -5 -81.5 -13q-39.5 -8 -73 -25q-33.5 -17 -59.5 -47q-26 -30 -41 -79l4 0q27 32 75 51.5q48 19.5 101 19.5q31 0 59 -9.5q28 -9.5 49 -30.5q21 -21 33 -53.5q12 -32.5 12 -78.5q0 -60 -19 -116q-19 -56 -54.5 -98.5q-35.5 -42.5 -86 -68.5t-113.5 -26z" />
<glyph unicode="&#1074;" horiz-adv-x="493" d="M121 352q35 70 97.5 107.5q62.5 37.5 143.5 37.5q67 0 105.5 -25q38.5 -25 38.5 -85q0 -43 -27.5 -77.5q-27.5 -34.5 -69.5 -52.5q34 -14 50.5 -40q16.5 -26 16.5 -56q0 -35 -16.5 -66.5q-16.5 -31.5 -47 -55.5q-30.5 -24 -73.5 -38q-43 -14 -95 -14q-35 0 -66.5 7q-31.5 7 -55 24.5q-23.5 17.5 -37 46q-13.5 28.5 -13.5 71.5q0 56 13 112q13 56 36 104zt0 0zM212 292q16 1 46.5 2.5q30.5 1.5 61 8.5q30.5 7 53 22q22.5 15 22.5 43q0 14 -11.5 23q-11.5 9 -33.5 9q-98 0 -138 -108zt0 0zM191 199q-6 -26 -6 -51q0 -19 6.5 -31.5q6.5 -12.5 17 -19.5q10.5 -7 24.5 -9.5q14 -2.5 28 -2.5q19 0 37.5 5q18.5 5 33.5 14q15 9 24 22.5q9 13.5 9 30.5q0 26 -24.5 36.5q-24.5 10.5 -65.5 10.5q-26 0 -51 -2t-33 -3z" />
<glyph unicode="&#1075;" horiz-adv-x="401" d="M379 57q3 -9 2.5 -16.5q-0.5 -7.5 -8.5 -12.5q-32 -20 -72 -30.5q-40 -10.5 -77 -10.5q-48 0 -81 11.5q-33 11.5 -54 30q-21 18.5 -30.5 42.5q-9.5 24 -9.5 50q0 47 20 77q20 30 50 49.5q30 19.5 65 31q35 11.5 65 22q30 10.5 50 23q20 12.5 20 33.5q0 23 -17 31q-17 8 -49 8q-26 0 -51 -5.5q-25 -5.5 -49 -13.5q-8 -2 -16 0.5q-8 2.5 -10 16.5l-7 39q-2 16 0 23q2 7 17 14q33 14 69.5 20.5q36.5 6.5 72.5 6.5q44 0 74 -8q30 -8 48.5 -23q18.5 -15 26.5 -35.5q8 -20.5 8 -45.5q0 -52 -20 -85q-20 -33 -50 -53.5q-30 -20.5 -65 -32.5q-35 -12 -65 -22.5q-30 -10.5 -50 -22.5q-20 -12 -20 -34q0 -29 21.5 -38.5q21.5 -9.5 47.5 -9.5q26 0 54 7q28 7 51 16q20 7 26 -12z" />
<glyph unicode="&#1076;" horiz-adv-x="517" d="M430 381q-35 26 -90 26q-30 0 -58.5 -15.5q-28.5 -15.5 -51 -44.5q-22.5 -29 -36.5 -71q-14 -42 -14 -95q0 -48 24 -69.5q24 -21.5 61 -21.5q41 0 72 27.5q31 27.5 51.5 70q20.5 42.5 31 94q10.5 51.5 10.5 99.5zt0 0zM335 502q29 0 55.5 -7.5q26.5 -7.5 40.5 -15.5l4 0q-4 37 -19 63q-15 26 -39.5 43q-24.5 17 -57.5 26q-33 9 -73 12q-23 1 -19 25l10 48q2 10 6.5 16.5q4.5 6.5 16.5 5.5q145 -5 214.5 -76.5q69.5 -71.5 69.5 -214.5q0 -111 -24.5 -193.5q-24.5 -82.5 -65 -137q-40.5 -54.5 -94 -82q-53.5 -27.5 -110.5 -27.5q-95 0 -141 54q-46 54 -46 145q0 63 20 120q20 57 56 100.5q36 43.5 86 69.5t110 26z" />
<glyph unicode="&#1077;" horiz-adv-x="475" d="M460 254q-24 -16 -53 -27q-29 -11 -60 -17.5q-31 -6.5 -61 -9.5q-30 -3 -56 -3q-13 0 -24 0q-11 0 -20 1q-1 -5 -1 -9.5q0 -4.5 0 -8.5q0 -41 21 -63.5q21 -22.5 72 -22.5q37 0 66 7q29 7 64 23q10 4 14.5 1.5q4.5 -2.5 9.5 -10.5l24 -47q7 -12 2.5 -17.5q-4.5 -5.5 -8.5 -7.5q-29 -18 -53.5 -29q-24.5 -11 -47 -17q-22.5 -6 -44 -8q-21.5 -2 -44.5 -2q-102 0 -148.5 45q-46.5 45 -46.5 136q0 68 23.5 128q23.5 60 63 104.5q39.5 44.5 92.5 70.5q53 26 113 26q47 0 78.5 -11.5q31.5 -11.5 51 -29.5q19.5 -18 27.5 -41q8 -23 8 -45q0 -35 -17.5 -65.5q-17.5 -30.5 -45.5 -50.5zt0 0zM213 286q29 0 62.5 3q33.5 3 61.5 11.5q28 8.5 46.5 22q18.5 13.5 18.5 34.5q0 16 -13.5 29.5q-13.5 13.5 -45.5 13.5q-24 0 -45 -9.5q-21 -9.5 -38 -25.5q-17 -16 -29 -36.5t-18 -42.5z" />
<glyph unicode="&#1078;" horiz-adv-x="676" d="M394 37q-3 -14 -6 -21.5q-3 -7.5 -8 -11q-5 -3.5 -12.5 -4q-7.5 -0.5 -19.5 -0.5h-33q-21 0 -30.5 7q-9.5 7 -4.5 30l31 163h-46l-108 -147q-24 -33 -42.5 -45.5q-18.5 -12.5 -43.5 -12.5q-18 0 -34 7q-16 7 -27 32q-6 14 5 25q18 15 30.5 29q12.5 14 25.5 31l114 140l-80 182q-8 20 -3 31.5q5 11.5 24 11.5h50q16 0 24.5 -6.5q8.5 -6.5 15.5 -20.5l67 -155h47l28 145q6 27 14.5 32q8.5 5 32.5 5h31q21 0 30.5 -7q9.5 -7 4.5 -30l-28 -145h46l123 160q10 11 20 16.5q10 5.5 24 5.5h52q14 0 20.5 -4.5q6.5 -4.5 8 -11q1.5 -6.5 -2 -14q-3.5 -7.5 -8.5 -13.5l-161 -192l57 -129q8 -15 15.5 -31.5q7.5 -16.5 27.5 -39.5q8 -8 6.5 -14.5q-1.5 -6.5 -4.5 -11.5q-13 -19 -28.5 -23.5q-15.5 -4.5 -26.5 -4.5q-28 0 -48.5 13q-20.5 13 -36.5 51l-58 141l-45 0z" />
<glyph unicode="&#1079;" horiz-adv-x="396" d="M210 295q48 0 67.5 16q19.5 16 19.5 42q0 22 -16.5 33q-16.5 11 -46.5 11q-29 0 -62 -7.5q-33 -7.5 -59 -18.5q-5 -2 -11 -3q-6 -1 -11 5q-13 17 -13 39q0 24 16.5 40.5q16.5 16.5 42 26q25.5 9.5 57.5 14q32 4.5 64 4.5q31 0 59.5 -6.5q28.5 -6.5 50 -20.5q21.5 -14 34 -36q12.5 -22 12.5 -53q0 -20 -7.5 -40.5q-7.5 -20.5 -20 -38q-12.5 -17.5 -29 -30.5q-16.5 -13 -35.5 -19q36 -18 49.5 -47q13.5 -29 13.5 -61q0 -38 -16 -67.5q-16 -29.5 -43.5 -49.5q-27.5 -20 -63.5 -30.5q-36 -10.5 -76 -10.5q-47 0 -92 10q-45 10 -86 37q-10 7 -13 14.5q-3 7.5 6 24.5l22 40q5 9 12 11.5q7 2.5 18 -2.5q26 -12 59 -20q33 -8 65 -8q44 0 69 15.5q25 15.5 25 45.5q0 21 -20 30q-20 9 -56 9h-56q-22 0 -28 7q-6 7 -4 24l7 38q4 23 11.5 27.5q7.5 4.5 25.5 4.5l59 0z" />
<glyph unicode="&#1080;" horiz-adv-x="534" d="M478 130q-5 -26 -3 -46q2 -20 10 -39q8 -21 -11 -30l-50 -24q-24 -11 -36 7q-14 20 -20 40q-6 20 -8 40q-43 -51 -84 -71q-41 -20 -90 -20q-55 0 -80.5 25.5q-25.5 25.5 -32.5 63.5q-7 38 -1 81.5q6 43.5 14 79.5l45 210q6 27 14.5 32q8.5 5 32.5 5h34q21 0 30.5 -7q9.5 -7 4.5 -30l-52 -251q-2 -13 -4.5 -30q-2.5 -17 -1 -32q1.5 -15 10 -25.5q8.5 -10.5 27.5 -10.5q24 0 48.5 12q24.5 12 46.5 35q22 23 40 55q18 32 29 73l39 174q6 27 14.5 32q8.5 5 32.5 5h32q21 0 30.5 -7q9.5 -7 4.5 -30z" />
<glyph unicode="&#1081;" horiz-adv-x="534" d="M267 672q12 5 17.5 0q5.5 -5 8.5 -9q17 -23 36.5 -37q19.5 -14 42.5 -14q47 0 97 55q7 8 13.5 7.5q6.5 -0.5 15.5 -8.5l27 -23q6 -5 9 -11.5q3 -6.5 -3 -17.5q-28 -48 -75 -75q-47 -27 -103 -27q-96 0 -141 103q-7 16 -1 23q6 7 14 12zM478 130q-5 -26 -3 -46q2 -20 10 -39q8 -21 -11 -30l-50 -24q-24 -11 -36 7q-14 20 -20 40q-6 20 -8 40q-43 -51 -84 -71q-41 -20 -90 -20q-55 0 -80.5 25.5q-25.5 25.5 -32.5 63.5q-7 38 -1 81.5q6 43.5 14 79.5l45 210q6 27 14.5 32q8.5 5 32.5 5h34q21 0 30.5 -7q9.5 -7 4.5 -30l-52 -251q-2 -13 -4.5 -30q-2.5 -17 -1 -32q1.5 -15 10 -25.5q8.5 -10.5 27.5 -10.5q24 0 48.5 12q24.5 12 46.5 35q22 23 40 55q18 32 29 73l39 174q6 27 14.5 32q8.5 5 32.5 5h32q21 0 30.5 -7q9.5 -7 4.5 -30z" />
<glyph unicode="&#1082;" horiz-adv-x="455" d="M165 37q-3 -14 -6 -21.5q-3 -7.5 -8 -11q-5 -3.5 -12.5 -4q-7.5 -0.5 -19.5 -0.5h-36q-21 0 -30.5 7q-9.5 7 -4.5 30l82 410q6 27 14.5 32q8.5 5 32.5 5h34q21 0 30.5 -7q9.5 -7 4.5 -30l-29 -143h34l147 157q11 11 21.5 17q10.5 6 25.5 6h62q20 1 25 -11q5 -12 -12 -31l-186 -191l76 -130q13 -23 26 -42q13 -19 26 -31q5 -5 6 -11q1 -6 -4 -14q-12 -17 -28 -22.5q-16 -5.5 -33 -5.5q-31 0 -50.5 13q-19.5 13 -37.5 45l-81 146l-37 0z" />
<glyph unicode="&#1083;" horiz-adv-x="525" d="M450 37q-3 -14 -6 -21.5q-3 -7.5 -8 -11q-5 -3.5 -12.5 -4q-7.5 -0.5 -19.5 -0.5h-36q-21 0 -30.5 7q-9.5 7 -4.5 30l67 337h-132q-22 -98 -43.5 -169.5q-21.5 -71.5 -45.5 -118q-24 -46.5 -52.5 -69q-28.5 -22.5 -64.5 -22.5q-67 2 -67 70q0 3 0 6q0 3 1 8q2 13 8.5 15.5q6.5 2.5 13.5 2.5q30 0 44 12q14 12 25 32q13 24 24 57.5q11 33.5 21.5 73.5q10.5 40 20.5 83.5q10 43.5 19 87.5q5 22 14 31.5q9 9.5 32 9.5h278q21 0 30.5 -7q9.5 -7 4.5 -30z" />
<glyph unicode="&#1084;" horiz-adv-x="646" d="M614 484q21 0 30.5 -7q9.5 -7 4.5 -30l-62 -410q-2 -14 -5 -21.5q-3 -7.5 -8 -11q-5 -3.5 -13 -4q-8 -0.5 -20 -0.5h-31q-21 0 -30 7q-9 7 -5 30l30 173l28 111l-51 -111l-101 -172q-11 -18 -19.5 -26q-8.5 -8 -22.5 -8h-45q-15 0 -21.5 9q-6.5 9 -10.5 26l-37 171l-15 112l-10 -112l-37 -173q-4 -14 -7 -21.5q-3 -7.5 -7.5 -11q-4.5 -3.5 -12 -4q-7.5 -0.5 -19.5 -0.5h-31q-21 0 -30.5 7q-9.5 7 -4.5 30l99 410q7 25 15 31q8 6 32 6h46q20 0 27.5 -10.5q7.5 -10.5 10.5 -27.5l53 -323l183 323q11 19 22.5 28.5q11.5 9.5 28.5 9.5z" />
<glyph unicode="&#1085;" horiz-adv-x="567" d="M492 37q-3 -14 -6 -21.5q-3 -7.5 -8 -11q-5 -3.5 -12.5 -4q-7.5 -0.5 -19.5 -0.5h-36q-21 0 -30.5 7q-9.5 7 -4.5 30l31 157h-194l-31 -157q-3 -14 -6 -21.5q-3 -7.5 -8 -11q-5 -3.5 -12.5 -4q-7.5 -0.5 -19.5 -0.5h-36q-21 0 -30.5 7q-9.5 7 -4.5 30l82 410q6 27 14.5 32q8.5 5 32.5 5h34q21 0 30.5 -7q9.5 -7 4.5 -30l-29 -144h195l29 144q6 27 14.5 32q8.5 5 32.5 5h34q21 0 30.5 -7q9.5 -7 4.5 -30z" />
<glyph unicode="&#1086;" horiz-adv-x="553" d="M272 98q39 0 69.5 17.5q30.5 17.5 51.5 45q21 27.5 32.5 61.5q11.5 34 11.5 68q0 39 -20 67.5q-20 28.5 -67 28.5q-39 0 -69.5 -17.5q-30.5 -17.5 -51.5 -45q-21 -27.5 -32.5 -61.5q-11.5 -34 -11.5 -68q0 -39 19.5 -67q19.5 -28 67.5 -29zt0 0zM357 496q57 -1 95.5 -18q38.5 -17 61.5 -44.5q23 -27.5 32.5 -63q9.5 -35.5 9.5 -74.5q0 -65 -20.5 -120.5q-20.5 -55.5 -58 -97q-37.5 -41.5 -90 -66q-52.5 -24.5 -116.5 -25.5q-59 0 -98.5 16.5q-39.5 16.5 -63 44q-23.5 27.5 -33.5 64q-10 36.5 -10 76.5q0 65 20.5 121q20.5 56 59 97.5q38.5 41.5 92 65.5t119.5 24z" />
<glyph unicode="&#1087;" horiz-adv-x="559" d="M129 472q11 7 25 10.5q14 3.5 27 3.5q32 0 42.5 -17q10.5 -17 10.5 -40q0 -5 0 -10q0 -5 -1 -10q31 40 76 63.5q45 23.5 97 23.5q31 0 58 -8q27 -8 46.5 -25q19.5 -17 30.5 -44q11 -27 11 -66q0 -19 -3.5 -42q-3.5 -23 -8.5 -43l-30 -138q-4 -16 -4 -33q0 -14 3 -26.5q3 -12.5 8 -25.5q5 -11 0 -19q-5 -8 -13 -12l-48 -23q-24 -11 -36 7q-31 47 -31 98q0 12 2 24.5q2 12.5 5 26.5l29 125q4 15 6.5 32q2.5 17 2.5 32q0 22 -10.5 37q-10.5 15 -41.5 15q-26 0 -50.5 -10q-24.5 -10 -46 -28.5q-21.5 -18.5 -39 -44q-17.5 -25.5 -29.5 -56.5l-43 -212q-3 -14 -6 -21.5q-3 -7.5 -8 -11q-5 -3.5 -12.5 -4q-7.5 -0.5 -19.5 -0.5h-34q-21 0 -30.5 7q-9.5 7 -4.5 30l63 324q3 14 4 27.5q1 13.5 1 25.5q0 22 -4 39q-2 6 -1 10.5t7 8.5z" />
<glyph unicode="&#1088;" horiz-adv-x="558" d="M192 106q14 -3 30.5 -5.5q16.5 -2.5 30.5 -2.5q41 0 76.5 14q35.5 14 62 39.5q26.5 25.5 41.5 62.5q15 37 15 83q0 17 -3 33q-3 16 -10.5 28q-7.5 12 -21 19.5q-13.5 7.5 -34.5 7.5q-26 0 -50.5 -10q-24.5 -10 -45 -26.5q-20.5 -16.5 -36.5 -38q-16 -21.5 -24 -44.5zM264 -13q-22 0 -47 4q-25 4 -43 11l-43 -223q-3 -14 -6 -21.5q-3 -7.5 -8 -11q-5 -3.5 -12.5 -4q-7.5 -0.5 -19.5 -0.5h-36q-21 0 -30.5 7q-9.5 7 -4.5 30l112 582q5 23 5.5 46.5q0.5 23.5 -4.5 45.5q-2 6 -1 10.5q1 4.5 7 8.5q11 7 25 10.5q14 3.5 27 3.5q17 0 28 -6.5q11 -6.5 17 -17q6 -10.5 7.5 -24.5q1.5 -14 -0.5 -29q33 40 79 64q46 24 94 24q81 0 121 -53q40 -53 40 -143q0 -75 -26 -133q-26 -58 -69 -98.5q-43 -40.5 -98.5 -61.5t-113.5 -21z" />
<glyph unicode="&#1089;" horiz-adv-x="449" d="M64 191q0 64 20 120q20 56 56.5 97q36.5 41 89 65q52.5 24 117.5 24q27 0 54.5 -5q27.5 -5 50 -16q22.5 -11 36.5 -27.5q14 -16.5 14 -39.5q0 -26 -22 -48q-10 -10 -25 -3q-32 17 -60 24.5q-28 7.5 -60 7.5q-35 0 -63.5 -15q-28.5 -15 -48 -41q-19.5 -26 -30 -60q-10.5 -34 -10.5 -71q0 -54 25 -81q25 -27 67 -27q32 0 62.5 9.5q30.5 9.5 58.5 23.5q23 12 33 -11l18 -40q7 -14 4.5 -21.5q-2.5 -7.5 -13.5 -14.5q-41 -26 -84.5 -40q-43.5 -14 -93.5 -14q-54 0 -91 15.5q-37 15.5 -60.5 42.5q-23.5 27 -34 64.5t-10.5 81.5z" />
<glyph unicode="&#1090;" horiz-adv-x="774" d="M233 409q32 42 73 64.5q41 22.5 79 22.5q37 0 66 -21q29 -21 36 -67q13 16 29.5 32q16.5 16 37.5 28.5q21 12.5 46 20q25 7.5 55 7.5q33 0 55 -11.5q22 -11.5 34.5 -30q12.5 -18.5 17.5 -43q5 -24.5 5 -50.5q0 -25 -3 -49q-3 -24 -8 -44l-33 -138q-4 -16 -4 -33q0 -14 3 -26.5q3 -12.5 8 -25.5q5 -11 0 -19q-5 -8 -13 -12l-48 -23q-24 -11 -36 7q-31 47 -31 98q0 12 2 24.5q2 12.5 5 26.5l32 124q2 12 6 30.5q4 18.5 4 36.5q0 20 -7 35q-7 15 -30 15q-40 0 -75.5 -35q-35.5 -35 -53.5 -104l-43 -212q-3 -14 -6 -21.5q-3 -7.5 -8 -11q-5 -3.5 -12.5 -4q-7.5 -0.5 -19.5 -0.5h-32q-21 0 -30.5 7q-9.5 7 -4.5 30l46 234q2 12 6 30.5q4 18.5 4 36.5q0 20 -7.5 35q-7.5 15 -30.5 15q-40 0 -76 -35q-36 -35 -54 -104l-43 -212q-3 -14 -6 -21.5q-3 -7.5 -8 -11q-5 -3.5 -12.5 -4q-7.5 -0.5 -19.5 -0.5h-34q-21 0 -30.5 7q-9.5 7 -4.5 30l63 324q3 14 4 27.5q1 13.5 1 25.5q0 22 -4 39q-2 6 -1 10.5q1 4.5 7 8.5q11 7 25 10.5q14 3.5 27 3.5q32 0 42.5 -17q10.5 -17 10.5 -40q0 -5 0 -10t-1 -10z" />
<glyph unicode="&#1091;" horiz-adv-x="460" d="M416 461q9 16 19.5 19.5q10.5 3.5 27.5 3.5h43q20 0 26 -9q6 -9 -4 -29l-263 -518q-18 -35 -39 -69q-21 -34 -46.5 -60.5q-25.5 -26.5 -56.5 -43q-31 -16.5 -69 -16.5q-43 0 -60 19q-17 19 -17 45q0 23 11 45q5 8 17 5q8 -3 15 -4q7 -1 14 -1q33 0 62.5 20.5q29.5 20.5 56.5 69.5l31 62h-16q-9 0 -15.5 1.5q-6.5 1.5 -11.5 6.5q-5 5 -8 15.5q-3 10.5 -6 27.5l-47 393q-4 26 5.5 33q9.5 7 26.5 7h55q17 0 24.5 -8.5q7.5 -8.5 9.5 -25.5l34 -342l3 0z" />
<glyph unicode="&#1092;" horiz-adv-x="682" d="M291 89l59 308q-41 -5 -72 -21q-31 -16 -51 -41.5q-20 -25.5 -30 -58q-10 -32.5 -10 -68.5q0 -23 6 -43q6 -20 18.5 -36q12.5 -16 32 -26.5q19.5 -10.5 47.5 -13.5zt0 0zM348 -221q-3 -14 -6 -21.5q-3 -7.5 -8 -11q-5 -3.5 -12.5 -4q-7.5 -0.5 -19.5 -0.5h-36q-21 0 -30.5 7q-9.5 7 -4.5 30l40 210q-51 4 -89.5 22q-38.5 18 -64 46q-25.5 28 -38.5 64.5q-13 36.5 -13 78.5q0 58 17 110.5q17 52.5 54 93q37 40.5 94.5 65q57.5 24.5 137.5 26.5q0 0 0.5 2.5q0.5 2.5 3.5 19.5q3 17 10.5 55q7.5 38 21.5 109q6 27 14.5 32q8.5 5 32.5 5h34q21 0 30.5 -7q9.5 -7 4.5 -30l-36 -186q51 -4 90 -22q39 -18 64.5 -46q25.5 -28 38.5 -64.5q13 -36.5 13 -78.5q0 -58 -17.5 -110.5q-17.5 -52.5 -54 -93q-36.5 -40.5 -94 -65q-57.5 -24.5 -137.5 -26.5zM466 395l-59 -308q41 4 71.5 20.5q30.5 16.5 51 42q20.5 25.5 30.5 58q10 32.5 10 68.5q0 45 -24.5 79.5t-79.5 39.5z" />
<glyph unicode="&#1093;" horiz-adv-x="446" d="M432 39q8 -19 2 -29q-6 -10 -24 -10h-62q-19 1 -27 9q-8 8 -13 20l-61 123l-110 -129q-12 -14 -20.5 -18.5q-8.5 -4.5 -21.5 -4.5h-72q-17 -1 -20.5 13q-3.5 14 10.5 31l185 208l-95 193q-8 19 -2 29q6 10 24 10h62q19 -1 26.5 -9q7.5 -8 13.5 -20l57 -116l101 122q12 14 20.5 18.5q8.5 4.5 21.5 4.5h69q17 1 20.5 -11.5q3.5 -12.5 -7.5 -27.5l-177 -204z" />
<glyph unicode="&#1094;" horiz-adv-x="549" d="M478 139q-5 -30 4.5 -37q9.5 -7 27.5 -7h14q22 0 24 -15q2 -15 -2 -38l-30 -155q-3 -14 -6 -21.5q-3 -7.5 -7.5 -11q-4.5 -3.5 -12 -4q-7.5 -0.5 -19.5 -0.5h-29q-20 0 -29.5 7q-9.5 7 -4.5 30l21 113q-22 -1 -35.5 5q-13.5 6 -20.5 17.5q-7 11.5 -9 27.5q-2 16 -1 35q-43 -51 -86 -74.5q-43 -23.5 -92 -23.5q-55 0 -80.5 25.5q-25.5 25.5 -32.5 63.5q-7 38 -1 81.5q6 43.5 14 79.5l45 210q6 27 14.5 32q8.5 5 32.5 5h34q21 0 30.5 -7q9.5 -7 4.5 -30l-52 -251q-2 -13 -4.5 -30q-2.5 -17 -1 -32q1.5 -15 10 -25.5q8.5 -10.5 27.5 -10.5q24 0 48.5 12q24.5 12 46.5 35q22 23 40 55q18 32 29 73l39 174q6 27 14.5 32q8.5 5 32.5 5h32q21 0 30.5 -7q9.5 -7 4.5 -30z" />
<glyph unicode="&#1095;" horiz-adv-x="480" d="M183 316q-9 -41 1 -53q10 -12 30 -12q17 0 38.5 6.5q21.5 6.5 42.5 24q21 17.5 39 47q18 29.5 27 74.5q0 0 0 0q0 0 1 4q1 4 3 13.5q2 9.5 6 26.5q6 27 14 32q8 5 32 5h34q21 0 30.5 -7q9.5 -7 4.5 -30l-81 -410q-3 -14 -6 -21.5q-3 -7.5 -8 -11q-5 -3.5 -12.5 -4q-7.5 -0.5 -19.5 -0.5h-36q-21 0 -30.5 7q-9.5 7 -4.5 30l33 166q-26 -29 -65.5 -45q-39.5 -16 -74.5 -16q-45 0 -71.5 16q-26.5 16 -38.5 42.5q-12 26.5 -11.5 61q0.5 34.5 9.5 71.5l28 114q5 27 14 32q9 5 33 5h34q21 0 30.5 -6.5q9.5 -6.5 4.5 -30.5z" />
<glyph unicode="&#1096;" horiz-adv-x="791" d="M471 196q-3 -13 -5.5 -30q-2.5 -17 -1.5 -32q1 -15 8.5 -25.5q7.5 -10.5 24.5 -10.5q21 0 43 12q22 12 42 35q20 23 36.5 55q16.5 32 27.5 73l37 174q6 27 14.5 32q8.5 5 32.5 5h33q21 0 30.5 -7q9.5 -7 4.5 -30l-62 -302q-7 -38 -5.5 -59.5q1.5 -21.5 9.5 -40.5q8 -21 -11 -30l-50 -24q-24 -11 -36 7q-14 21 -20 41.5q-6 20.5 -8 40.5q-40 -52 -76 -72.5q-36 -20.5 -81 -20.5q-56 0 -81 31.5q-25 31.5 -29 76.5q-22 -30 -42 -51q-20 -21 -40 -33.5q-20 -12.5 -41 -18q-21 -5.5 -45 -5.5q-33 0 -55 12q-22 12 -34.5 32q-12.5 20 -17.5 45.5q-5 25.5 -4.5 53.5q0.5 28 4.5 55.5q4 27.5 9 51.5l44 210q6 27 14.5 32q8.5 5 32.5 5h34q21 0 30.5 -7q9.5 -7 4.5 -30l-50 -251q-2 -13 -4.5 -30q-2.5 -17 -1.5 -32q1 -15 8.5 -25.5q7.5 -10.5 24.5 -10.5q21 0 42.5 12q21.5 12 41.5 34q20 22 36 53.5q16 31.5 27 70.5l38 179q6 27 14.5 32q8.5 5 32.5 5h34q21 0 30.5 -7q9.5 -7 4.5 -30z" />
<glyph unicode="&#1097;" horiz-adv-x="805" d="M471 196q-3 -13 -5.5 -30q-2.5 -17 -1.5 -32q1 -15 8.5 -25.5q7.5 -10.5 24.5 -10.5q42 0 83 44q41 44 64 120l38 185q5 27 14.5 32q9.5 5 33.5 5h33q21 0 30.5 -7q9.5 -7 4.5 -30l-63 -308q-4 -30 4.5 -37q8.5 -7 26.5 -7h14q22 0 24 -15q2 -15 -2 -38l-30 -155q-3 -14 -6 -21.5q-3 -7.5 -7.5 -11q-4.5 -3.5 -12 -4q-7.5 -0.5 -19.5 -0.5h-29q-20 0 -29.5 7q-9.5 7 -4.5 30l22 113q-22 -1 -36 5.5q-14 6.5 -21.5 18q-7.5 11.5 -10 27.5q-2.5 16 -1.5 34q-40 -54 -77 -76q-37 -22 -82 -22q-56 0 -81 31.5q-25 31.5 -29 76.5q-22 -30 -42 -51q-20 -21 -40 -33.5q-20 -12.5 -41 -18q-21 -5.5 -45 -5.5q-33 0 -55 12q-22 12 -34.5 32q-12.5 20 -17.5 45.5q-5 25.5 -4.5 53.5q0.5 28 4.5 55.5q4 27.5 9 51.5l44 210q6 27 14.5 32q8.5 5 32.5 5h34q21 0 30.5 -7q9.5 -7 4.5 -30l-50 -251q-2 -13 -4.5 -30q-2.5 -17 -1.5 -32q1 -15 8.5 -25.5q7.5 -10.5 24.5 -10.5q21 0 42.5 12q21.5 12 41.5 34q20 22 36 53.5q16 31.5 27 70.5l38 179q6 27 14.5 32q8.5 5 32.5 5h34q21 0 30.5 -7q9.5 -7 4.5 -30z" />
<glyph unicode="&#1098;" horiz-adv-x="479" d="M223 -13q-38 0 -67.5 9q-29.5 9 -47.5 28.5q-18 19.5 -24 50.5q-6 31 5 75l57 229h-93q-24 0 -26.5 9.5q-2.5 9.5 1.5 32.5l4 22q5 23 11.5 32q6.5 9 32.5 9h171q23 0 30 -7.5q7 -7.5 2 -29.5l-34 -138q23 6 51 10.5q28 4.5 55 4.5q36 0 60.5 -9q24.5 -9 39 -24.5q14.5 -15.5 20.5 -36q6 -20.5 6 -44.5q0 -48 -18 -89q-18 -41 -51 -70.5q-33 -29.5 -80 -46.5q-47 -17 -105 -17zt0 0zM203 146q-8 -38 7 -49.5q15 -11.5 48 -11.5q51 0 81 29q30 29 30 71q0 28 -19 38q-19 10 -44 10q-23 0 -47.5 -6q-24.5 -6 -38.5 -11z" />
<glyph unicode="&#1099;" horiz-adv-x="673" d="M590 37q-6 -26 -14 -31.5q-8 -5.5 -32 -5.5h-36q-21 0 -30.5 7q-9.5 7 -4.5 30l90 410q3 13 6.5 20.5q3.5 7.5 9 11.5q5.5 4 13 4.5q7.5 0.5 19.5 0.5h34q21 0 30 -7q9 -7 4 -30zM200 -13q-38 0 -67.5 9q-29.5 9 -47.5 28.5q-18 19.5 -24 50.5q-6 31 5 75l74 297q3 13 7 20.5q4 7.5 9 11.5q5 4 13 4.5q8 0.5 20 0.5h35q23 0 30 -7.5q7 -7.5 2 -29.5l-34 -138q23 6 49 10.5q26 4.5 53 4.5q36 0 60.5 -9q24.5 -9 39 -24.5q14.5 -15.5 20.5 -36q6 -20.5 6 -44.5q0 -48 -17 -89q-17 -41 -49.5 -70.5q-32.5 -29.5 -79 -46.5q-46.5 -17 -104.5 -17zt0 0zM180 146q-8 -38 7 -49.5q15 -11.5 48 -11.5q51 0 79 29q28 29 28 71q0 28 -19 38q-19 10 -44 10q-23 0 -45.5 -6q-22.5 -6 -36.5 -11z" />
<glyph unicode="&#1100;" horiz-adv-x="456" d="M200 -13q-38 0 -67.5 9q-29.5 9 -47.5 28.5q-18 19.5 -24 50.5q-6 31 5 75l74 297q3 13 7 20.5q4 7.5 9 11.5q5 4 13 4.5q8 0.5 20 0.5h35q23 0 30 -7.5q7 -7.5 2 -29.5l-34 -138q23 6 51 10.5q28 4.5 55 4.5q36 0 60.5 -9q24.5 -9 39 -24.5q14.5 -15.5 20.5 -36q6 -20.5 6 -44.5q0 -48 -18 -89q-18 -41 -51 -70.5q-33 -29.5 -80 -46.5q-47 -17 -105 -17zt0 0zM180 146q-8 -38 7 -49.5q15 -11.5 48 -11.5q51 0 81 29q30 29 30 71q0 28 -19 38q-19 10 -44 10q-23 0 -47.5 -6q-24.5 -6 -38.5 -11z" />
<glyph unicode="&#1101;" horiz-adv-x="461" d="M242 396q-26 0 -51.5 -5q-25.5 -5 -46.5 -13q-7 -2 -13.5 -2q-6.5 0 -11.5 8q-8 16 -8 30q0 29 17.5 45.5q17.5 16.5 43 25q25.5 8.5 53.5 10.5q28 2 50 2q94 0 141.5 -47q47.5 -47 47.5 -137q0 -72 -19 -131.5q-19 -59.5 -55.5 -103q-36.5 -43.5 -90.5 -67.5q-54 -24 -124 -24q-41 0 -77.5 11.5q-36.5 11.5 -62.5 25.5q-5 3 -10.5 10q-5.5 7 2.5 25l20 40q6 12 14 14q8 2 19 -2q23 -9 49.5 -14.5q26.5 -5.5 52.5 -5.5q57 0 100 25q43 25 53 80l-182 0q-22 0 -28 7q-6 7 -4 24l7 38q4 23 11.5 27.5q7.5 4.5 25.5 4.5h189v9q0 28 -9.5 46q-9.5 18 -25.5 27.5q-16 9.5 -36 13t-41 3.5z" />
<glyph unicode="&#1102;" horiz-adv-x="733" d="M181 37q-3 -14 -6 -21.5q-3 -7.5 -8 -11q-5 -3.5 -12.5 -4q-7.5 -0.5 -19.5 -0.5h-36q-21 0 -30.5 7q-9.5 7 -4.5 30l82 410q6 27 14.5 32q8.5 5 32.5 5h34q21 0 30.5 -7q9.5 -7 4.5 -30l-29 -144h64q13 43 37 78.5q24 35.5 56.5 61q32.5 25.5 72.5 39.5q40 14 86 14q53 -1 89 -18q36 -17 57.5 -44.5q21.5 -27.5 31 -63q9.5 -35.5 9.5 -74.5q0 -65 -19.5 -120.5q-19.5 -55.5 -54.5 -97q-35 -41.5 -83.5 -66q-48.5 -24.5 -107.5 -25.5q-55 0 -91.5 16.5q-36.5 16.5 -58.5 44q-22 27.5 -31.5 64q-9.5 36.5 -9.5 76.5v6h-68zM471 98q36 0 64 17.5q28 17.5 48 45q20 27.5 30.5 61.5q10.5 34 10.5 68q0 39 -18.5 67.5q-18.5 28.5 -62.5 28.5q-36 0 -64 -17.5q-28 -17.5 -47.5 -45q-19.5 -27.5 -29.5 -61.5q-10 -34 -10 -68q0 -39 17.5 -67t61.5 -29z" />
<glyph unicode="&#1103;" horiz-adv-x="509" d="M434 37q-3 -14 -6 -21.5q-3 -7.5 -8 -11q-5 -3.5 -12.5 -4q-7.5 -0.5 -19.5 -0.5h-36q-21 0 -30.5 7q-9.5 7 -4.5 30l24 121h-66l-95 -105q-31 -34 -52 -46q-21 -12 -45 -12q-20 0 -37 10q-17 10 -27 31q-6 16 7 25q17 12 34 26q17 14 37 34l63 67q-38 21 -51 50.5q-13 29.5 -13 62.5q0 40 15.5 73q15.5 33 43 56.5q27.5 23.5 65.5 37.5q38 14 83 16l177 0q21 0 30.5 -7q9.5 -7 4.5 -30zM219 312q0 -22 16.5 -38q16.5 -16 46.5 -16h79l24 123h-84q-43 0 -62.5 -21t-19.5 -48z" />
<glyph unicode="&#1105;" horiz-adv-x="475" d="M460 254q-24 -16 -53 -27q-29 -11 -60 -17.5q-31 -6.5 -61 -9.5q-30 -3 -56 -3q-13 0 -24 0q-11 0 -20 1q-1 -5 -1 -9.5q0 -4.5 0 -8.5q0 -41 21 -63.5q21 -22.5 72 -22.5q37 0 66 7q29 7 64 23q10 4 14.5 1.5q4.5 -2.5 9.5 -10.5l24 -47q7 -12 2.5 -17.5q-4.5 -5.5 -8.5 -7.5q-29 -18 -53.5 -29q-24.5 -11 -47 -17q-22.5 -6 -44 -8q-21.5 -2 -44.5 -2q-102 0 -148.5 45q-46.5 45 -46.5 136q0 68 23.5 128q23.5 60 63 104.5q39.5 44.5 92.5 70.5q53 26 113 26q47 0 78.5 -11.5q31.5 -11.5 51 -29.5q19.5 -18 27.5 -41q8 -23 8 -45q0 -35 -17.5 -65.5q-17.5 -30.5 -45.5 -50.5zt0 0zM213 286q29 0 62.5 3q33.5 3 61.5 11.5q28 8.5 46.5 22q18.5 13.5 18.5 34.5q0 16 -13.5 29.5q-13.5 13.5 -45.5 13.5q-24 0 -45 -9.5q-21 -9.5 -38 -25.5q-17 -16 -29 -36.5q-12 -20.5 -18 -42.5zt0 0zM200 606q0 35 22.5 57.5q22.5 22.5 57.5 22.5q32 0 48.5 -17q16.5 -17 16.5 -45q0 -34 -23 -56q-23 -22 -60 -22q-29 0 -45.5 16.5q-16.5 16.5 -16.5 43.5zt0 0zM401 607q0 35 23 57q23 22 59 22q29 0 46.5 -17q17.5 -17 17.5 -45q0 -34 -24.5 -56q-24.5 -22 -58.5 -22q-30 0 -46.5 16.5t-16.5 44.5z" />
<glyph unicode="&#8211;" horiz-adv-x="641" d="M146 199q-26 0 -29 10q-3 10 1 34l4 26q4 25 11 35q7 10 34 10h429q23 0 26 -9.5q3 -9.5 0 -35.5l-3 -26q-4 -24 -11.5 -34q-7.5 -10 -34.5 -10z" />
<glyph unicode="&#8212;" horiz-adv-x="833" d="M149 199q-26 0 -29.5 10q-3.5 10 0.5 34l4 26q4 25 11 35q7 10 34 10h614q26 0 29.5 -9.5q3.5 -9.5 0.5 -35.5l-4 -26q-4 -24 -11.5 -34q-7.5 -10 -33.5 -10z" />
<glyph unicode="&#8216;" horiz-adv-x="245" d="M218 490q-31 0 -44.5 17.5q-13.5 17.5 -13.5 42.5q0 28 10.5 53q10.5 25 27.5 47.5q17 22.5 38 42.5q21 20 42 38q13 11 20 12.5q7 1.5 12 -5.5l17 -16q8 -8 6 -14.5q-2 -6.5 -10 -13.5q-32 -30 -43 -53q-11 -23 -11 -43q0 -11 4.5 -21q4.5 -10 15.5 -18q7 -5 8.5 -10.5q1.5 -5.5 -7.5 -19.5q-11 -17 -30 -28t-42 -11z" />
<glyph unicode="&#8217;" horiz-adv-x="199" d="M202 690q31 0 44.5 -17.5q13.5 -17.5 13.5 -42.5q0 -28 -10.5 -53q-10.5 -25 -27.5 -47.5q-17 -22.5 -38 -42.5q-21 -20 -42 -38q-13 -11 -20 -12.5q-7 -1.5 -12 5.5l-17 16q-8 8 -6 14.5q2 6.5 10 13.5q32 30 43 53q11 23 11 43q0 11 -4.5 21q-4.5 10 -15.5 18q-7 5 -8.5 10.5q-1.5 5.5 7.5 19.5q11 17 30 28t42 11z" />
<glyph unicode="&#8220;" horiz-adv-x="331" d="M292 490q-31 0 -44.5 17.5q-13.5 17.5 -13.5 42.5q0 28 10.5 53q10.5 25 27.5 47.5q17 22.5 38 42.5q21 20 42 38q13 11 20 12.5q7 1.5 12 -5.5l17 -16q8 -8 6 -14.5q-2 -6.5 -10 -13.5q-32 -30 -43 -53q-11 -23 -11 -43q0 -11 4.5 -21q4.5 -10 15.5 -18q7 -5 8.5 -10.5q1.5 -5.5 -7.5 -19.5q-11 -17 -30 -28q-19 -11 -42 -11zt0 0zM122 490q-31 0 -44.5 17.5q-13.5 17.5 -13.5 42.5q0 28 10.5 53q10.5 25 27.5 47.5q17 22.5 38 42.5q21 20 42 38q13 11 20 12.5q7 1.5 12 -5.5l17 -16q8 -8 6 -14.5q-2 -6.5 -10 -13.5q-32 -30 -43 -53q-11 -23 -11 -43q0 -11 4.5 -21q4.5 -10 15.5 -18q7 -5 8.5 -10.5q1.5 -5.5 -7.5 -19.5q-11 -17 -30 -28t-42 -11z" />
<glyph unicode="&#8221;" horiz-adv-x="411" d="M259 690q31 0 44.5 -17.5q13.5 -17.5 13.5 -42.5q0 -28 -10.5 -53q-10.5 -25 -27.5 -47.5q-17 -22.5 -38 -42.5q-21 -20 -42 -38q-13 -11 -20 -12.5q-7 -1.5 -12 5.5l-17 16q-8 8 -6 14.5q2 6.5 10 13.5q32 30 43 53q11 23 11 43q0 11 -4.5 21q-4.5 10 -15.5 18q-7 5 -8.5 10.5q-1.5 5.5 7.5 19.5q11 17 30 28q19 11 42 11zt0 0zM429 690q31 0 44.5 -17.5q13.5 -17.5 13.5 -42.5q0 -28 -10.5 -53q-10.5 -25 -27.5 -47.5q-17 -22.5 -38 -42.5q-21 -20 -42 -38q-13 -11 -20 -12.5q-7 -1.5 -12 5.5l-17 16q-8 8 -6 14.5q2 6.5 10 13.5q32 30 43 53q11 23 11 43q0 11 -4.5 21q-4.5 10 -15.5 18q-7 5 -8.5 10.5q-1.5 5.5 7.5 19.5q11 17 30 28t42 11z" />
<glyph unicode="&#8222;" horiz-adv-x="428" d="M149 110q31 0 44.5 -17.5q13.5 -17.5 13.5 -42.5q0 -28 -10.5 -53q-10.5 -25 -27.5 -47.5q-17 -22.5 -38 -42.5q-21 -20 -42 -38q-13 -11 -20 -12.5q-7 -1.5 -12 5.5l-17 16q-8 8 -6 14.5q2 6.5 10 13.5q32 30 43 53q11 23 11 43q0 11 -4.5 21q-4.5 10 -15.5 18q-7 5 -8.5 10.5q-1.5 5.5 7.5 19.5q11 17 30 28q19 11 42 11zt0 0zM319 110q31 0 44.5 -17.5q13.5 -17.5 13.5 -42.5q0 -28 -10.5 -53q-10.5 -25 -27.5 -47.5q-17 -22.5 -38 -42.5q-21 -20 -42 -38q-13 -11 -20 -12.5q-7 -1.5 -12 5.5l-17 16q-8 8 -6 14.5q2 6.5 10 13.5q32 30 43 53q11 23 11 43q0 11 -4.5 21q-4.5 10 -15.5 18q-7 5 -8.5 10.5q-1.5 5.5 7.5 19.5q11 17 30 28t42 11z" />
</font>
</defs>
</svg>
